<?xml version="1.0" encoding="utf-8"?>
<!-- Generator: Adobe Illustrator 19.2.1, SVG Export Plug-In . SVG Version: 6.00 Build 0)  -->
<svg version="1.1" id="Lager_1" xmlns="http://www.w3.org/2000/svg" xmlns:xlink="http://www.w3.org/1999/xlink" x="0px" y="0px"
	 width="172.608px" height="246.001px" viewBox="0 0 172.608 246.001" enable-background="new 0 0 172.608 246.001"
	 xml:space="preserve">
<g>
	<g>
		<g>
			
				<line fill="none" stroke="#000000" stroke-width="0.7482" stroke-linecap="round" stroke-linejoin="round" stroke-miterlimit="1" x1="67.856" y1="201.904" x2="67.856" y2="183.706"/>
			
				<line fill="none" stroke="#000000" stroke-width="0.7482" stroke-linecap="round" stroke-linejoin="round" stroke-miterlimit="1" x1="67.856" y1="44.209" x2="67.856" y2="65.873"/>
			
				<line fill="none" stroke="#000000" stroke-width="0.7482" stroke-linecap="round" stroke-linejoin="round" stroke-miterlimit="1" x1="105.074" y1="57.169" x2="105.074" y2="35.169"/>
			
				<line fill="none" stroke="#000000" stroke-width="0.7482" stroke-linecap="round" stroke-linejoin="round" stroke-miterlimit="1" x1="67.856" y1="177.978" x2="67.856" y2="123.662"/>
			
				<line fill="none" stroke="#000000" stroke-width="0.7482" stroke-linecap="round" stroke-linejoin="round" stroke-miterlimit="1" x1="67.856" y1="69.346" x2="67.856" y2="123.662"/>
			
				<line fill="none" stroke="#000000" stroke-width="0.7482" stroke-linecap="round" stroke-linejoin="round" stroke-miterlimit="1" x1="105.074" y1="178.855" x2="105.074" y2="123.662"/>
			
				<line fill="none" stroke="#000000" stroke-width="0.7482" stroke-linecap="round" stroke-linejoin="round" stroke-miterlimit="1" x1="105.074" y1="68.471" x2="105.074" y2="123.662"/>
		</g>
		
			<line fill="none" stroke="#000000" stroke-width="0.7482" stroke-linecap="round" stroke-linejoin="round" stroke-miterlimit="1" x1="67.856" y1="202.846" x2="67.856" y2="181.294"/>
		
			<line fill="none" stroke="#000000" stroke-width="0.7482" stroke-linecap="round" stroke-linejoin="round" stroke-miterlimit="1" x1="105.074" y1="189.121" x2="105.074" y2="211.931"/>
	</g>
</g>
<g>
	<g>
		<g>
			<g>
				<g>
					
						<line fill="none" stroke="#000000" stroke-width="0.4678" stroke-linecap="round" stroke-linejoin="round" stroke-miterlimit="1" x1="100.029" y1="240.271" x2="114.56" y2="240.271"/>
					
						<line fill="none" stroke="#000000" stroke-width="0.4678" stroke-linecap="round" stroke-linejoin="round" stroke-miterlimit="1" x1="75.344" y1="240.271" x2="88.149" y2="240.271"/>
					<g>
						<path d="M95.916,242.277c-0.391,0.332-0.767,0.566-1.128,0.703s-0.749,0.205-1.163,0.205c-0.684,0-1.209-0.167-1.576-0.501
							s-0.551-0.761-0.551-1.28c0-0.305,0.069-0.583,0.208-0.835s0.32-0.454,0.545-0.606s0.478-0.268,0.759-0.346
							c0.207-0.055,0.52-0.107,0.938-0.158c0.852-0.102,1.479-0.223,1.881-0.363c0.004-0.145,0.006-0.236,0.006-0.275
							c0-0.43-0.1-0.732-0.299-0.908c-0.27-0.238-0.67-0.357-1.201-0.357c-0.496,0-0.862,0.087-1.099,0.261
							s-0.411,0.481-0.524,0.923l-1.031-0.141c0.094-0.441,0.248-0.798,0.463-1.069s0.525-0.48,0.932-0.627s0.877-0.22,1.412-0.22
							c0.531,0,0.963,0.062,1.295,0.188s0.576,0.282,0.732,0.472s0.266,0.429,0.328,0.718c0.035,0.18,0.053,0.504,0.053,0.973v1.406
							c0,0.98,0.022,1.601,0.067,1.86s0.134,0.509,0.267,0.747h-1.102C96.018,242.826,95.947,242.57,95.916,242.277z
							 M95.828,239.921c-0.383,0.156-0.957,0.289-1.723,0.398c-0.434,0.062-0.74,0.133-0.92,0.211s-0.318,0.192-0.416,0.343
							s-0.146,0.317-0.146,0.501c0,0.281,0.106,0.516,0.319,0.703s0.524,0.281,0.935,0.281c0.406,0,0.768-0.089,1.084-0.267
							s0.549-0.421,0.697-0.729c0.113-0.238,0.17-0.59,0.17-1.055V239.921z"/>
					</g>
				</g>
				
					<line fill="none" stroke="#000000" stroke-width="0.4678" stroke-linecap="round" stroke-linejoin="round" stroke-miterlimit="1" x1="68.177" y1="217.915" x2="68.177" y2="243.285"/>
				
					<line fill="none" stroke="#000000" stroke-width="0.4678" stroke-linecap="round" stroke-linejoin="round" stroke-miterlimit="1" x1="120.274" y1="126.55" x2="120.274" y2="243.285"/>
			</g>
			<g>
				<g>
					<g>
						
							<line fill="none" stroke="#000000" stroke-width="0.4678" stroke-linecap="round" stroke-linejoin="round" stroke-miterlimit="1" x1="25.704" y1="132.134" x2="25.704" y2="195.147"/>
						
							<line fill="none" stroke="#000000" stroke-width="0.4678" stroke-linecap="round" stroke-linejoin="round" stroke-miterlimit="1" x1="25.704" y1="51.385" x2="25.704" y2="115.611"/>
						<g>
							<path d="M20.22,127.833v-8.59h2.959c0.668,0,1.178,0.041,1.529,0.123c0.492,0.113,0.912,0.318,1.26,0.615
								c0.453,0.383,0.792,0.872,1.017,1.468s0.337,1.276,0.337,2.042c0,0.652-0.076,1.23-0.229,1.734s-0.348,0.921-0.586,1.251
								s-0.499,0.59-0.782,0.779s-0.625,0.333-1.025,0.431s-0.86,0.146-1.38,0.146H20.22z M21.356,126.82h1.834
								c0.566,0,1.011-0.053,1.333-0.158s0.579-0.254,0.771-0.445c0.27-0.27,0.479-0.632,0.63-1.087s0.226-1.007,0.226-1.655
								c0-0.898-0.147-1.589-0.442-2.071s-0.653-0.806-1.075-0.97c-0.305-0.117-0.795-0.176-1.471-0.176h-1.805V126.82z"/>
							<path d="M31.313,130.308h-0.791v-5.041c-0.19,0.183-0.44,0.364-0.75,0.545c-0.309,0.183-0.586,0.318-0.833,0.409v-0.765
								c0.442-0.208,0.829-0.46,1.16-0.756s0.565-0.583,0.703-0.861h0.51V130.308z"/>
						</g>
					</g>
					
						<line fill="none" stroke="#000000" stroke-width="0.4678" stroke-linecap="round" stroke-linejoin="round" stroke-miterlimit="1" x1="65.207" y1="45.635" x2="23.563" y2="45.635"/>
					
						<line fill="none" stroke="#000000" stroke-width="0.4678" stroke-linecap="round" stroke-linejoin="round" stroke-miterlimit="1" x1="65.207" y1="201.828" x2="23.563" y2="201.828"/>
				</g>
				<g>
					<g>
						
							<line fill="none" stroke="#000000" stroke-width="0.4678" stroke-linecap="round" stroke-linejoin="round" stroke-miterlimit="1" x1="7.003" y1="131.777" x2="7.003" y2="210.912"/>
						
							<line fill="none" stroke="#000000" stroke-width="0.4678" stroke-linecap="round" stroke-linejoin="round" stroke-miterlimit="1" x1="7.003" y1="36.164" x2="7.003" y2="115.914"/>
						<g>
							<path d="M3.773,127.832v-8.59h2.959c0.668,0,1.178,0.041,1.529,0.123c0.492,0.113,0.912,0.318,1.26,0.615
								c0.453,0.383,0.792,0.872,1.017,1.468s0.337,1.276,0.337,2.042c0,0.652-0.076,1.23-0.229,1.734s-0.348,0.921-0.586,1.251
								s-0.499,0.59-0.782,0.779s-0.625,0.333-1.025,0.431s-0.86,0.146-1.38,0.146H3.773z M4.91,126.818h1.834
								c0.566,0,1.011-0.053,1.333-0.158s0.579-0.254,0.771-0.445c0.27-0.27,0.479-0.632,0.63-1.087s0.226-1.007,0.226-1.655
								c0-0.898-0.147-1.589-0.442-2.071s-0.653-0.806-1.075-0.97c-0.305-0.117-0.795-0.176-1.471-0.176H4.91V126.818z"/>
						</g>
					</g>
					
						<line fill="none" stroke="#000000" stroke-width="0.4678" stroke-linecap="round" stroke-linejoin="round" stroke-miterlimit="1" x1="67.119" y1="30.119" x2="4.863" y2="30.119"/>
					
						<line fill="none" stroke="#000000" stroke-width="0.4678" stroke-linecap="round" stroke-linejoin="round" stroke-miterlimit="1" x1="67.063" y1="217.04" x2="4.863" y2="217.04"/>
				</g>
				<g>
					<g>
						
							<line fill="none" stroke="#000000" stroke-width="0.4678" stroke-linecap="round" stroke-linejoin="round" stroke-miterlimit="1" x1="93.015" y1="6.709" x2="99.678" y2="6.709"/>
						
							<line fill="none" stroke="#000000" stroke-width="0.4678" stroke-linecap="round" stroke-linejoin="round" stroke-miterlimit="1" x1="73.439" y1="6.709" x2="80.516" y2="6.709"/>
						<g>
							<path d="M83.737,11.13V2.54h3.223c0.656,0,1.183,0.087,1.579,0.261s0.707,0.441,0.932,0.803s0.337,0.739,0.337,1.134
								c0,0.367-0.1,0.713-0.299,1.037s-0.5,0.586-0.902,0.785c0.52,0.152,0.919,0.412,1.198,0.779s0.419,0.801,0.419,1.301
								c0,0.402-0.085,0.776-0.255,1.122s-0.38,0.612-0.63,0.8s-0.563,0.329-0.94,0.425s-0.839,0.144-1.386,0.144H83.737z
								 M84.874,6.149h1.857c0.504,0,0.865-0.033,1.084-0.1c0.289-0.086,0.507-0.229,0.653-0.428s0.22-0.449,0.22-0.75
								c0-0.285-0.068-0.536-0.205-0.753c-0.137-0.217-0.332-0.365-0.586-0.445s-0.689-0.12-1.307-0.12h-1.717V6.149z
								 M84.874,10.116h2.139c0.367,0,0.625-0.014,0.773-0.041c0.262-0.047,0.48-0.125,0.656-0.234s0.32-0.269,0.434-0.478
								s0.17-0.45,0.17-0.724c0-0.32-0.082-0.599-0.246-0.835c-0.164-0.236-0.392-0.402-0.683-0.498s-0.71-0.144-1.257-0.144h-1.986
								V10.116z"/>
						</g>
					</g>
					
						<line fill="none" stroke="#000000" stroke-width="0.4678" stroke-linecap="round" stroke-linejoin="round" stroke-miterlimit="1" x1="68.177" y1="28.738" x2="68.177" y2="3.883"/>
					
						<line fill="none" stroke="#000000" stroke-width="0.4678" stroke-linecap="round" stroke-linejoin="round" stroke-miterlimit="1" x1="104.949" y1="29.418" x2="104.949" y2="3.883"/>
				</g>
				<g>
					<g>
						
							<line fill="none" stroke="#000000" stroke-width="0.4678" stroke-linecap="round" stroke-linejoin="round" stroke-miterlimit="1" x1="143.733" y1="131.369" x2="143.733" y2="170.355"/>
						
							<line fill="none" stroke="#000000" stroke-width="0.4678" stroke-linecap="round" stroke-linejoin="round" stroke-miterlimit="1" x1="143.733" y1="80.635" x2="143.733" y2="115.724"/>
						<g>
							<path d="M144.67,127.832v-0.785c-0.395,0.617-0.975,0.926-1.74,0.926c-0.496,0-0.952-0.137-1.368-0.41
								s-0.738-0.655-0.967-1.146s-0.343-1.054-0.343-1.69c0-0.621,0.104-1.185,0.311-1.69s0.518-0.894,0.932-1.163
								s0.877-0.404,1.389-0.404c0.375,0,0.709,0.079,1.002,0.237s0.531,0.364,0.715,0.618v-3.082h1.049v8.59H144.67z
								 M141.336,124.726c0,0.797,0.168,1.393,0.504,1.787s0.732,0.592,1.189,0.592c0.461,0,0.853-0.188,1.175-0.565
								s0.483-0.952,0.483-1.726c0-0.852-0.164-1.477-0.492-1.875s-0.732-0.598-1.213-0.598c-0.469,0-0.86,0.191-1.175,0.574
								S141.336,123.902,141.336,124.726z"/>
						</g>
					</g>
					
						<line fill="none" stroke="#000000" stroke-width="0.4678" stroke-linecap="round" stroke-linejoin="round" stroke-miterlimit="1" x1="107.249" y1="72.298" x2="145.802" y2="72.298"/>
					
						<line fill="none" stroke="#000000" stroke-width="0.4678" stroke-linecap="round" stroke-linejoin="round" stroke-miterlimit="1" x1="107.62" y1="175.169" x2="145.802" y2="175.169"/>
				</g>
				<g>
					<g>
						
							<line fill="none" stroke="#000000" stroke-width="0.4678" stroke-linecap="round" stroke-linejoin="round" stroke-miterlimit="1" x1="162.435" y1="132.359" x2="162.435" y2="186.663"/>
						
							<line fill="none" stroke="#000000" stroke-width="0.4678" stroke-linecap="round" stroke-linejoin="round" stroke-miterlimit="1" x1="162.435" y1="62.056" x2="162.435" y2="115.494"/>
						<g>
							<path d="M161.204,127.832v-0.785c-0.395,0.617-0.975,0.926-1.74,0.926c-0.496,0-0.952-0.137-1.368-0.41
								s-0.738-0.655-0.967-1.146s-0.343-1.054-0.343-1.69c0-0.621,0.104-1.185,0.311-1.69s0.518-0.894,0.932-1.163
								s0.877-0.404,1.389-0.404c0.375,0,0.709,0.079,1.002,0.237s0.531,0.364,0.715,0.618v-3.082h1.049v8.59H161.204z
								 M157.87,124.726c0,0.797,0.168,1.393,0.504,1.787s0.732,0.592,1.189,0.592c0.461,0,0.853-0.188,1.175-0.565
								s0.483-0.952,0.483-1.726c0-0.852-0.164-1.477-0.492-1.875s-0.732-0.598-1.213-0.598c-0.469,0-0.86,0.191-1.175,0.574
								S157.87,123.902,157.87,124.726z"/>
							<path d="M166.403,130.306h-0.791v-5.041c-0.191,0.183-0.44,0.364-0.75,0.545c-0.309,0.183-0.586,0.318-0.832,0.409v-0.765
								c0.441-0.208,0.828-0.46,1.16-0.756c0.33-0.296,0.564-0.583,0.703-0.861h0.51V130.306z"/>
						</g>
					</g>
					
						<line fill="none" stroke="#000000" stroke-width="0.4678" stroke-linecap="round" stroke-linejoin="round" stroke-miterlimit="1" x1="107.061" y1="56.156" x2="164.505" y2="56.156"/>
					
						<line fill="none" stroke="#000000" stroke-width="0.4678" stroke-linecap="round" stroke-linejoin="round" stroke-miterlimit="1" x1="107.62" y1="191.288" x2="164.505" y2="191.288"/>
				</g>
				<g>
					<path d="M70.919,24.718v-6.223h0.949v0.943c0.242-0.441,0.466-0.732,0.671-0.873s0.431-0.211,0.677-0.211
						c0.355,0,0.717,0.113,1.084,0.34l-0.363,0.979c-0.258-0.152-0.516-0.229-0.773-0.229c-0.23,0-0.438,0.069-0.621,0.208
						s-0.314,0.331-0.393,0.577c-0.117,0.375-0.176,0.785-0.176,1.23v3.258H70.919z"/>
					<path d="M78.666,26.433v0.76h-4.258c-0.006-0.19,0.025-0.374,0.092-0.549c0.108-0.29,0.282-0.576,0.521-0.857
						c0.238-0.281,0.583-0.606,1.035-0.976c0.7-0.574,1.173-1.029,1.419-1.364s0.369-0.653,0.369-0.952
						c0-0.313-0.112-0.578-0.336-0.793c-0.225-0.215-0.517-0.323-0.877-0.323c-0.381,0-0.686,0.114-0.914,0.343
						s-0.344,0.545-0.347,0.949l-0.813-0.083c0.056-0.606,0.265-1.068,0.628-1.387c0.363-0.317,0.851-0.477,1.463-0.477
						c0.618,0,1.107,0.171,1.468,0.514s0.541,0.768,0.541,1.274c0,0.258-0.053,0.511-0.158,0.76s-0.281,0.511-0.525,0.787
						c-0.245,0.275-0.651,0.653-1.22,1.134c-0.475,0.398-0.779,0.669-0.914,0.811s-0.246,0.285-0.334,0.428H78.666z"/>
				</g>
				<g>
					<path d="M107.709,38.824v-6.223h0.949v0.943c0.242-0.441,0.466-0.732,0.671-0.873s0.431-0.211,0.677-0.211
						c0.355,0,0.717,0.113,1.084,0.34l-0.363,0.979c-0.258-0.152-0.516-0.229-0.773-0.229c-0.23,0-0.438,0.069-0.621,0.208
						s-0.314,0.331-0.393,0.577c-0.117,0.375-0.176,0.785-0.176,1.23v3.258H107.709z"/>
					<path d="M111.304,39.599l0.791-0.105c0.091,0.448,0.245,0.771,0.464,0.969c0.218,0.197,0.483,0.296,0.797,0.296
						c0.372,0,0.687-0.129,0.943-0.387c0.256-0.258,0.385-0.577,0.385-0.958c0-0.363-0.119-0.663-0.356-0.899
						c-0.237-0.235-0.539-0.354-0.905-0.354c-0.149,0-0.336,0.029-0.559,0.088l0.088-0.694c0.053,0.006,0.096,0.009,0.128,0.009
						c0.337,0,0.64-0.088,0.909-0.264s0.404-0.447,0.404-0.813c0-0.29-0.098-0.53-0.294-0.721s-0.45-0.286-0.761-0.286
						c-0.307,0-0.563,0.097-0.769,0.29s-0.337,0.483-0.396,0.87l-0.791-0.141c0.097-0.53,0.316-0.941,0.659-1.232
						s0.769-0.438,1.278-0.438c0.352,0,0.676,0.076,0.972,0.227s0.522,0.356,0.679,0.617c0.157,0.261,0.235,0.538,0.235,0.831
						c0,0.278-0.075,0.532-0.224,0.76c-0.15,0.229-0.371,0.41-0.664,0.545c0.381,0.088,0.677,0.271,0.888,0.547
						c0.211,0.277,0.316,0.624,0.316,1.04c0,0.562-0.205,1.04-0.615,1.43c-0.41,0.392-0.929,0.587-1.556,0.587
						c-0.565,0-1.035-0.168-1.408-0.505C111.57,40.571,111.357,40.135,111.304,39.599z"/>
				</g>
				<g>
					<path d="M93.605,24.911v-6.223h0.949v0.943c0.242-0.441,0.466-0.732,0.671-0.873s0.431-0.211,0.677-0.211
						c0.355,0,0.717,0.113,1.084,0.34l-0.363,0.979c-0.258-0.152-0.516-0.229-0.773-0.229c-0.23,0-0.438,0.069-0.621,0.208
						s-0.314,0.331-0.393,0.577c-0.117,0.375-0.176,0.785-0.176,1.23v3.258H93.605z"/>
					<path d="M99.731,27.386v-1.542h-2.795v-0.725l2.94-4.175h0.646v4.175h0.871v0.725h-0.871v1.542H99.731z M99.731,25.119v-2.905
						l-2.017,2.905H99.731z"/>
				</g>
				<g>
					<path d="M107.933,66.901v-6.223h0.949v0.943c0.242-0.441,0.466-0.732,0.671-0.873s0.431-0.211,0.677-0.211
						c0.355,0,0.717,0.113,1.084,0.34l-0.363,0.979c-0.258-0.152-0.516-0.229-0.773-0.229c-0.23,0-0.438,0.069-0.621,0.208
						s-0.314,0.331-0.393,0.577c-0.117,0.375-0.176,0.785-0.176,1.23v3.258H107.933z"/>
					<path d="M114.503,69.376h-0.791v-5.041c-0.191,0.182-0.44,0.363-0.75,0.545c-0.309,0.182-0.586,0.318-0.832,0.409v-0.765
						c0.441-0.208,0.828-0.46,1.16-0.756c0.33-0.296,0.564-0.583,0.703-0.861h0.51V69.376z"/>
				</g>
				<g>
					<path d="M89.884,81.396v-6.223h0.949v0.943c0.242-0.441,0.466-0.732,0.671-0.873s0.431-0.211,0.677-0.211
						c0.355,0,0.717,0.113,1.084,0.34l-0.363,0.979c-0.258-0.152-0.516-0.229-0.773-0.229c-0.23,0-0.438,0.069-0.621,0.208
						s-0.314,0.331-0.393,0.577c-0.117,0.375-0.176,0.785-0.176,1.23v3.258H89.884z"/>
					<path d="M97.632,83.11v0.76h-4.259c-0.006-0.19,0.025-0.374,0.092-0.549c0.108-0.29,0.282-0.576,0.521-0.857
						c0.238-0.281,0.583-0.606,1.034-0.976c0.7-0.574,1.174-1.029,1.42-1.364s0.369-0.653,0.369-0.952
						c0-0.313-0.112-0.578-0.336-0.793c-0.225-0.215-0.517-0.323-0.877-0.323c-0.381,0-0.686,0.114-0.914,0.343
						s-0.344,0.545-0.347,0.949l-0.813-0.083c0.056-0.606,0.265-1.068,0.628-1.387c0.363-0.317,0.851-0.477,1.463-0.477
						c0.618,0,1.107,0.171,1.468,0.514s0.54,0.768,0.54,1.274c0,0.258-0.053,0.511-0.158,0.76s-0.28,0.511-0.524,0.787
						c-0.245,0.275-0.651,0.653-1.22,1.134c-0.475,0.398-0.779,0.669-0.914,0.811s-0.246,0.285-0.334,0.428H97.632z"/>
				</g>
				<g>
					<path d="M56.729,72.701v-6.223h0.949v0.943c0.242-0.441,0.466-0.732,0.671-0.873s0.431-0.211,0.677-0.211
						c0.355,0,0.717,0.113,1.084,0.34l-0.363,0.979c-0.258-0.152-0.516-0.229-0.773-0.229c-0.23,0-0.438,0.069-0.621,0.208
						s-0.314,0.331-0.393,0.577c-0.117,0.375-0.176,0.785-0.176,1.23v3.258H56.729z"/>
					<path d="M63.298,75.176h-0.791v-5.041c-0.19,0.182-0.44,0.363-0.75,0.545s-0.586,0.318-0.833,0.409v-0.765
						c0.442-0.208,0.829-0.46,1.16-0.756s0.565-0.583,0.703-0.861h0.51V75.176z"/>
				</g>
				<g>
					<path d="M70.259,81.587v-6.223h0.949v0.943c0.242-0.441,0.466-0.732,0.671-0.873s0.431-0.211,0.677-0.211
						c0.355,0,0.717,0.113,1.084,0.34l-0.363,0.979c-0.258-0.152-0.516-0.229-0.773-0.229c-0.23,0-0.438,0.069-0.621,0.208
						s-0.314,0.331-0.393,0.577c-0.117,0.375-0.176,0.785-0.176,1.23v3.258H70.259z"/>
					<path d="M78.006,83.302v0.76h-4.258c-0.006-0.19,0.025-0.374,0.092-0.549c0.108-0.29,0.282-0.576,0.521-0.857
						c0.238-0.281,0.583-0.606,1.035-0.976c0.7-0.574,1.173-1.029,1.419-1.364s0.369-0.653,0.369-0.952
						c0-0.313-0.112-0.578-0.336-0.793c-0.225-0.215-0.517-0.323-0.877-0.323c-0.381,0-0.686,0.114-0.914,0.343
						s-0.344,0.545-0.347,0.949l-0.813-0.083c0.056-0.606,0.265-1.068,0.628-1.387c0.363-0.317,0.851-0.477,1.463-0.477
						c0.618,0,1.107,0.171,1.468,0.514s0.541,0.768,0.541,1.274c0,0.258-0.053,0.511-0.158,0.76s-0.281,0.511-0.525,0.787
						c-0.245,0.275-0.651,0.653-1.22,1.134c-0.475,0.398-0.779,0.669-0.914,0.811s-0.246,0.285-0.334,0.428H78.006z"/>
				</g>
				<g>
					<path d="M56.921,39.011v-6.223h0.949v0.943c0.242-0.441,0.466-0.732,0.671-0.873s0.431-0.211,0.677-0.211
						c0.355,0,0.717,0.113,1.084,0.34l-0.363,0.979c-0.258-0.152-0.516-0.229-0.773-0.229c-0.23,0-0.438,0.069-0.621,0.208
						s-0.314,0.331-0.393,0.577c-0.117,0.375-0.176,0.785-0.176,1.23v3.258H56.921z"/>
					<path d="M63.491,41.486H62.7v-5.041c-0.19,0.182-0.44,0.363-0.75,0.545s-0.586,0.318-0.833,0.409v-0.765
						c0.442-0.208,0.829-0.46,1.16-0.756s0.565-0.583,0.703-0.861h0.51V41.486z"/>
				</g>
			</g>
			<g>
				
					<line fill="none" stroke="#000000" stroke-width="0.4706" stroke-linecap="round" stroke-linejoin="round" stroke-miterlimit="1" stroke-dasharray="18.7087,1.871,0.9354,1.871" x1="65.23" y1="123.65" x2="124.166" y2="123.65"/>
			</g>
		</g>
	</g>
	<polygon points="96.53,5.526 104.949,6.709 96.53,7.893 	"/>
	<polygon points="76.596,7.893 68.177,6.709 76.596,5.526 	"/>
	<polygon points="5.82,38.538 7.003,30.119 8.188,38.538 	"/>
	<polygon points="24.52,54.054 25.704,45.635 26.886,54.054 	"/>
	<polygon points="142.55,80.717 143.733,72.298 144.917,80.717 	"/>
	<polygon points="161.251,64.574 162.435,56.156 163.618,64.574 	"/>
	<polygon points="144.917,166.751 143.733,175.169 142.55,166.751 	"/>
	<g>
		<g>
			
				<line fill="none" stroke="#000000" stroke-width="0.4678" stroke-linecap="round" stroke-linejoin="round" stroke-miterlimit="1" x1="44.404" y1="132.705" x2="44.404" y2="176.202"/>
			
				<line fill="none" stroke="#000000" stroke-width="0.4678" stroke-linecap="round" stroke-linejoin="round" stroke-miterlimit="1" x1="44.404" y1="71.628" x2="44.404" y2="115.897"/>
			<g>
				<path d="M43.094,127.832v-0.785c-0.395,0.617-0.975,0.926-1.74,0.926c-0.496,0-0.952-0.137-1.368-0.41s-0.738-0.655-0.967-1.146
					s-0.343-1.054-0.343-1.69c0-0.621,0.104-1.185,0.311-1.69s0.518-0.894,0.932-1.163s0.877-0.404,1.389-0.404
					c0.375,0,0.709,0.079,1.002,0.237s0.531,0.364,0.715,0.618v-3.082h1.049v8.59H43.094z M39.76,124.726
					c0,0.797,0.168,1.393,0.504,1.787s0.732,0.592,1.189,0.592c0.461,0,0.853-0.188,1.175-0.565s0.483-0.952,0.483-1.726
					c0-0.852-0.164-1.477-0.492-1.875s-0.732-0.598-1.213-0.598c-0.469,0-0.86,0.191-1.175,0.574S39.76,123.902,39.76,124.726z"/>
				<path d="M49.47,129.546v0.76h-4.258c-0.006-0.19,0.025-0.373,0.092-0.549c0.108-0.291,0.282-0.576,0.521-0.857
					c0.238-0.281,0.583-0.606,1.035-0.976c0.7-0.574,1.173-1.029,1.419-1.364c0.246-0.336,0.369-0.652,0.369-0.951
					c0-0.314-0.112-0.578-0.336-0.794c-0.225-0.215-0.517-0.323-0.877-0.323c-0.381,0-0.686,0.115-0.914,0.344
					s-0.344,0.545-0.347,0.949l-0.813-0.084c0.056-0.606,0.265-1.068,0.628-1.387c0.363-0.317,0.851-0.477,1.463-0.477
					c0.618,0,1.107,0.171,1.468,0.514c0.36,0.344,0.541,0.768,0.541,1.275c0,0.258-0.053,0.511-0.158,0.76s-0.281,0.512-0.525,0.787
					c-0.245,0.275-0.651,0.653-1.22,1.133c-0.475,0.399-0.779,0.669-0.914,0.812c-0.135,0.142-0.246,0.285-0.334,0.429H49.47z"/>
			</g>
		</g>
		
			<line fill="none" stroke="#000000" stroke-width="0.4678" stroke-linecap="round" stroke-linejoin="round" stroke-miterlimit="1" x1="42.258" y1="64.758" x2="65.518" y2="64.758"/>
		
			<line fill="none" stroke="#000000" stroke-width="0.4678" stroke-linecap="round" stroke-linejoin="round" stroke-miterlimit="1" x1="42.258" y1="182.769" x2="65.518" y2="182.769"/>
	</g>
	<polygon points="43.22,73.177 44.404,64.758 45.586,73.177 	"/>
	<polygon points="45.586,174.353 44.404,182.769 43.22,174.353 	"/>
	<polygon points="163.618,182.87 162.435,191.288 161.251,182.87 	"/>
	<polygon points="111.692,239.087 120.11,240.271 111.692,241.455 	"/>
	<polygon points="76.596,241.455 68.177,240.271 76.596,239.087 	"/>
	<polygon points="26.886,193.41 25.704,201.828 24.52,193.41 	"/>
	<polygon points="8.188,208.623 7.003,217.04 5.82,208.623 	"/>
</g>
<g>
	
		<path fill="#CAD4ED" stroke="#000000" stroke-width="0.7482" stroke-linecap="round" stroke-linejoin="round" stroke-miterlimit="1" d="
		M99.708,55.97h4.481c0.408,0,0.872,0.325,0.872,0.803s0,12.865,0,12.865c0,0.929-2.73,2.576-4.503,2.576
		c-1.773,0-27.868,0-27.868,0c-2.435,0-4.856-2.237-4.856-2.984s0-3.842,0-3.842c0-0.324,0.408-0.746,0.76-0.746s14.525,0,14.525,0
		L99.708,55.97z"/>
	
		<path fill="#CAD4ED" stroke="#000000" stroke-width="0.5614" stroke-linecap="round" stroke-linejoin="round" stroke-miterlimit="1" d="
		M72.838,53.869l1.175,4.374l3.574,3.701l-0.981,0.377c0,0-0.851-0.096-2.169-0.096s-2.361,0.096-2.361,0.096
		s-0.695-0.767-1.258-1.342c-0.563-0.575-1.258-1.163-1.258-1.163v-4.111l1.043-1.043L72.838,53.869z"/>
	
		<path fill="#CAD4ED" stroke="#000000" stroke-width="0.5614" stroke-linecap="round" stroke-linejoin="round" stroke-miterlimit="1" d="
		M100.425,54.042l0.445-5.133l-1.714-4.159l3.037-1.041c0,0,0.204-0.084,0.348,0.072c0.144,0.156,0.998,1.043,0.998,1.043v7.419
		l-1.094,1.198L100.425,54.042z"/>
	
		<path fill="#CAD4ED" stroke="#000000" stroke-width="0.7482" stroke-linecap="round" stroke-linejoin="round" stroke-miterlimit="1" d="
		M92,38.31c0,0,0.395-0.649,0.958-0.649c0.563,0,2.435,0,2.435,0s0.507-0.957,1.464-0.957s6.306,0,6.306,0l1.59-0.802
		c0,0,0.309-0.212,0.309-0.535c0-0.323,0-3.659,0-3.659c0-0.324-0.759-1.562-1.787-1.562c-1.027,0-30.374,0-30.374,0
		c-2.196,0-5.067,1.971-5.067,2.871s0,11.446,0,11.446c0,0.394,0.31,0.749,0.662,0.749h1.408c0,0,0.549-0.172,1.126-0.172
		c0.577,0,3.078,0,3.078,0L92,38.31z"/>
	
		<circle fill="#FFFFFF" stroke="#000000" stroke-width="0.7483" stroke-linejoin="round" stroke-miterlimit="10" cx="86.623" cy="51.169" r="13.934"/>
	
		<line fill="none" stroke="#000000" stroke-width="0.5613" stroke-linejoin="round" stroke-miterlimit="10" x1="69.558" y1="59.397" x2="69.558" y2="64.642"/>
	
		<line fill="none" stroke="#000000" stroke-width="0.5613" stroke-linejoin="round" stroke-miterlimit="10" x1="72.075" y1="62.322" x2="72.075" y2="64.642"/>
	
		<line fill="none" stroke="#000000" stroke-width="0.5613" stroke-linejoin="round" stroke-miterlimit="10" x1="102.444" y1="53.441" x2="102.444" y2="55.97"/>
	
		<line fill="none" stroke="#000000" stroke-width="0.5613" stroke-linejoin="round" stroke-miterlimit="10" x1="103.538" y1="52.242" x2="103.538" y2="55.97"/>
	
		<line fill="none" stroke="#000000" stroke-width="0.383" stroke-linejoin="round" stroke-miterlimit="10" x1="95.392" y1="37.661" x2="95.392" y2="40.407"/>
	
		<line fill="none" stroke="#000000" stroke-width="0.4706" stroke-linecap="round" stroke-linejoin="round" stroke-miterlimit="1" stroke-dasharray="15.5906,1.871,0.9354,1.871" x1="79.729" y1="36.41" x2="120.408" y2="123.646"/>
</g>
<g>
	
		<path fill="#CAD4ED" stroke="#000000" stroke-width="0.7482" stroke-linecap="round" stroke-linejoin="round" stroke-miterlimit="1" d="
		M99.708,191.03h4.481c0.408,0,0.872-0.325,0.872-0.803c0-0.479,0-12.865,0-12.865c0-0.929-2.73-2.576-4.503-2.576
		c-1.773,0-27.868,0-27.868,0c-2.435,0-4.856,2.237-4.856,2.984s0,3.842,0,3.842c0,0.324,0.408,0.746,0.76,0.746s14.525,0,14.525,0
		L99.708,191.03z"/>
	
		<path fill="#CAD4ED" stroke="#000000" stroke-width="0.5614" stroke-linecap="round" stroke-linejoin="round" stroke-miterlimit="1" d="
		M72.838,193.131l1.175-4.374l3.574-3.701l-0.981-0.377c0,0-0.851,0.096-2.169,0.096s-2.361-0.096-2.361-0.096
		s-0.695,0.767-1.258,1.342c-0.563,0.575-1.258,1.163-1.258,1.163v4.111l1.043,1.043L72.838,193.131z"/>
	
		<path fill="#CAD4ED" stroke="#000000" stroke-width="0.5614" stroke-linecap="round" stroke-linejoin="round" stroke-miterlimit="1" d="
		M100.425,192.958l0.445,5.133l-1.714,4.159l3.037,1.041c0,0,0.204,0.084,0.348-0.072c0.144-0.156,0.998-1.043,0.998-1.043v-7.419
		l-1.094-1.198L100.425,192.958z"/>
	
		<path fill="#CAD4ED" stroke="#000000" stroke-width="0.7482" stroke-linecap="round" stroke-linejoin="round" stroke-miterlimit="1" d="
		M92,208.691c0,0,0.395,0.649,0.958,0.649c0.563,0,2.435,0,2.435,0s0.507,0.957,1.464,0.957s6.306,0,6.306,0l1.59,0.802
		c0,0,0.309,0.212,0.309,0.535s0,3.659,0,3.659c0,0.324-0.759,1.562-1.787,1.562c-1.027,0-30.374,0-30.374,0
		c-2.196,0-5.067-1.97-5.067-2.871s0-11.446,0-11.446c0-0.394,0.31-0.749,0.662-0.749h1.408c0,0,0.549,0.172,1.126,0.172
		c0.577,0,3.078,0,3.078,0L92,208.691z"/>
	
		<circle fill="#FFFFFF" stroke="#000000" stroke-width="0.7483" stroke-linejoin="round" stroke-miterlimit="10" cx="86.623" cy="195.832" r="13.934"/>
	
		<line fill="none" stroke="#000000" stroke-width="0.5613" stroke-linejoin="round" stroke-miterlimit="10" x1="69.558" y1="187.604" x2="69.558" y2="182.358"/>
	
		<line fill="none" stroke="#000000" stroke-width="0.5613" stroke-linejoin="round" stroke-miterlimit="10" x1="72.075" y1="184.679" x2="72.075" y2="182.358"/>
	
		<line fill="none" stroke="#000000" stroke-width="0.5613" stroke-linejoin="round" stroke-miterlimit="10" x1="102.444" y1="193.56" x2="102.444" y2="191.03"/>
	
		<line fill="none" stroke="#000000" stroke-width="0.5613" stroke-linejoin="round" stroke-miterlimit="10" x1="103.538" y1="194.758" x2="103.538" y2="191.03"/>
	
		<line fill="none" stroke="#000000" stroke-width="0.383" stroke-linejoin="round" stroke-miterlimit="10" x1="95.392" y1="209.34" x2="95.392" y2="206.593"/>
	
		<line fill="none" stroke="#000000" stroke-width="0.4706" stroke-linecap="round" stroke-linejoin="round" stroke-miterlimit="1" stroke-dasharray="15.5906,1.871,0.9354,1.871" x1="79.729" y1="210.59" x2="120.408" y2="123.354"/>
</g>
</svg>
