<?xml version="1.0" encoding="utf-8"?>
<!-- Generator: Adobe Illustrator 15.1.0, SVG Export Plug-In . SVG Version: 6.00 Build 0)  -->
<!DOCTYPE svg PUBLIC "-//W3C//DTD SVG 1.1//EN" "http://www.w3.org/Graphics/SVG/1.1/DTD/svg11.dtd">
<svg version="1.1" id="Lager_1" xmlns="http://www.w3.org/2000/svg" xmlns:xlink="http://www.w3.org/1999/xlink" x="0px" y="0px"
	 width="131px" height="269.001px" viewBox="0 0 131 269.001" enable-background="new 0 0 131 269.001" xml:space="preserve">
<g>
	<g>
		<path fill="#BACDEA" stroke="#000000" stroke-width="0.5614" stroke-linecap="round" stroke-linejoin="round" d="M74.575,55.237
			l0.814,2.883c0,0-41.44,10.278-41.876,10.388c-0.435,0.108-0.598,0.543-0.435,1.141c0.163,0.6,0.707,3.373,0.707,3.373h-2.502
			c0,0-1.388-2.356-1.631-3.535c-0.382-1.851,0.488-3.916,3.426-4.623C36.016,64.155,74.575,55.237,74.575,55.237z"/>
		<path fill="#BACDEA" stroke="#000000" stroke-width="0.5614" stroke-linecap="round" stroke-linejoin="round" d="M74.575,231.443
			l0.814-2.885c0,0-41.44-10.277-41.876-10.383c-0.435-0.109-0.598-0.547-0.435-1.143c0.163-0.6,0.707-3.373,0.707-3.373h-2.502
			c0,0-1.388,2.355-1.631,3.535c-0.382,1.85,0.488,3.914,3.426,4.621C36.016,222.525,74.575,231.443,74.575,231.443z"/>
		<path fill="#BACDEA" stroke="#000000" stroke-width="0.7482" stroke-linecap="round" stroke-linejoin="round" d="M30.957,52.301
			c0-2.502,1.85-2.502,2.829-2.502c0.979,0,35.023,0,35.895,0s1.414,0.545,1.414,0.978c0,0.438,0,2.285,0,2.285
			s-36.112,8.811-37.418,9.137c-1.304,0.327-2.72-0.271-2.72-1.358C30.957,59.75,30.957,52.301,30.957,52.301z"/>
		<path d="M30.957,52.301"/>
		<path fill="#BACDEA" stroke="#000000" stroke-width="0.7482" stroke-linecap="round" stroke-linejoin="round" d="M31.066,81.777
			c0-0.652,0-4.351,0-4.351l1.85-1.633h3.48l0.761,1.088l35.133-6.634l-0.543-2.72l1.305-0.652h7.398l1.521,1.414
			c0,0,0,11.965,0,12.725c0,0.763-1.959,2.067-3.047,2.067s-46.226,0-46.661,0C31.827,83.082,31.066,81.777,31.066,81.777z"/>
		<path d="M31.066,81.777"/>
		<path fill="#FFFFFF" stroke="#000000" stroke-width="0.7482" stroke-linecap="round" stroke-linejoin="round" d="M33.569,63.015
			c-0.163-0.544,0.104-0.806,0.705-0.925c0.339-0.067,33.561-8.193,33.828-8.266c0.598-0.165,0.871-0.055,1.033,0.325
			c0.096,0.224,3.154,15.011,3.264,15.282s-0.49,1.142-0.924,1.252c-0.436,0.107-33.285,6.146-33.719,6.253
			c-0.437,0.109-0.87-0.327-1.033-0.544C36.559,76.176,33.569,63.015,33.569,63.015z"/>
		<path d="M33.622,63.178"/>
		<path d="M74.575,55.237"/>
		
			<line fill="none" stroke="#000000" stroke-width="0.4678" stroke-linecap="round" stroke-linejoin="round" stroke-dasharray="16.3702,1.871,0.9354,1.871" x1="85.235" y1="143.34" x2="26.498" y2="143.34"/>
		
			<line fill="none" stroke="#000000" stroke-width="0.5614" stroke-linecap="round" stroke-linejoin="round" x1="31.066" y1="81.777" x2="31.066" y2="143.34"/>
		
			<line fill="none" stroke="#000000" stroke-width="0.7482" stroke-linecap="round" stroke-linejoin="round" x1="81.971" y1="81.015" x2="81.971" y2="143.34"/>
		
			<line fill="none" stroke="#000000" stroke-width="0.7482" stroke-linecap="round" stroke-linejoin="round" x1="30.957" y1="61.002" x2="30.957" y2="65.68"/>
		
			<line fill="none" stroke="#000000" stroke-width="0.7482" stroke-linecap="round" stroke-linejoin="round" x1="71.094" y1="53.062" x2="71.094" y2="55.999"/>
		
			<line fill="none" stroke="#000000" stroke-width="0.5614" stroke-linecap="round" stroke-linejoin="round" x1="75.389" y1="58.12" x2="75.389" y2="66.876"/>
		
			<line fill="none" stroke="#000000" stroke-width="0.5614" stroke-linecap="round" stroke-linejoin="round" x1="33.786" y1="73.021" x2="33.786" y2="75.794"/>
		
			<line fill="none" stroke="#000000" stroke-width="0.5614" stroke-linecap="round" stroke-linejoin="round" x1="31.284" y1="73.021" x2="31.284" y2="77.264"/>
		
			<line fill="none" stroke="#000000" stroke-width="0.4678" stroke-linecap="round" stroke-linejoin="round" x1="29.541" y1="68.778" x2="29.541" y2="143.34"/>
		<path fill="#BACDEA" stroke="#000000" stroke-width="0.7482" stroke-linecap="round" stroke-linejoin="round" d="M30.957,234.381
			c0,2.502,1.85,2.502,2.829,2.502c0.979,0,35.023,0,35.895,0s1.414-0.547,1.414-0.979c0-0.436,0-2.285,0-2.285
			s-36.112-8.811-37.418-9.135c-1.304-0.328-2.72,0.27-2.72,1.355C30.957,226.932,30.957,234.381,30.957,234.381z"/>
		<path d="M30.957,234.381"/>
		<path fill="#BACDEA" stroke="#000000" stroke-width="0.7482" stroke-linecap="round" stroke-linejoin="round" d="M31.066,204.902
			c0,0.652,0,4.354,0,4.354l1.85,1.631h3.48l0.761-1.088l35.133,6.635l-0.543,2.721l1.305,0.652h7.398l1.521-1.416
			c0,0,0-11.963,0-12.725c0-0.764-1.959-2.066-3.047-2.066s-46.226,0-46.661,0C31.827,203.6,31.066,204.902,31.066,204.902z"/>
		<path d="M31.066,204.902"/>
		<path fill="#FFFFFF" stroke="#000000" stroke-width="0.7482" stroke-linecap="round" stroke-linejoin="round" d="M33.569,223.668
			c-0.163,0.543,0.104,0.801,0.705,0.922c0.339,0.068,33.561,8.195,33.828,8.27c0.598,0.162,0.871,0.053,1.033-0.326
			c0.096-0.225,3.154-15.012,3.264-15.283s-0.49-1.143-0.924-1.25c-0.436-0.109-33.285-6.146-33.719-6.256
			c-0.437-0.109-0.87,0.328-1.033,0.545C36.559,210.506,33.569,223.668,33.569,223.668z"/>
		<path d="M33.622,223.504"/>
		<path d="M74.575,231.443"/>
		
			<line fill="none" stroke="#000000" stroke-width="0.5614" stroke-linecap="round" stroke-linejoin="round" x1="31.066" y1="204.902" x2="31.066" y2="143.34"/>
		
			<line fill="none" stroke="#000000" stroke-width="0.7482" stroke-linecap="round" stroke-linejoin="round" x1="81.971" y1="205.666" x2="81.971" y2="143.34"/>
		
			<line fill="none" stroke="#000000" stroke-width="0.7482" stroke-linecap="round" stroke-linejoin="round" x1="30.957" y1="225.68" x2="30.957" y2="221.002"/>
		
			<line fill="none" stroke="#000000" stroke-width="0.7482" stroke-linecap="round" stroke-linejoin="round" x1="71.094" y1="233.619" x2="71.094" y2="230.684"/>
		
			<line fill="none" stroke="#000000" stroke-width="0.5614" stroke-linecap="round" stroke-linejoin="round" x1="75.389" y1="228.559" x2="75.389" y2="219.807"/>
		
			<line fill="none" stroke="#000000" stroke-width="0.5614" stroke-linecap="round" stroke-linejoin="round" x1="33.786" y1="213.66" x2="33.786" y2="210.887"/>
		
			<line fill="none" stroke="#000000" stroke-width="0.5614" stroke-linecap="round" stroke-linejoin="round" x1="31.284" y1="213.66" x2="31.284" y2="209.418"/>
		<line fill="none" stroke="#000000" stroke-width="0.4706" x1="29.541" y1="217.902" x2="29.541" y2="143.34"/>
	</g>
	<g>
		
			<path fill="none" stroke="#000000" stroke-width="0.4678" stroke-linecap="round" stroke-linejoin="round" stroke-miterlimit="1" stroke-dasharray="26.4,1.98,0.66,1.98" d="
			M73.364,142.48"/>
		<g>
			<g>
				
					<line fill="none" stroke="#000000" stroke-width="0.4678" stroke-linecap="round" stroke-linejoin="round" stroke-miterlimit="1" x1="6.029" y1="150.826" x2="6.029" y2="232.734"/>
				
					<line fill="none" stroke="#000000" stroke-width="0.4678" stroke-linecap="round" stroke-linejoin="round" stroke-miterlimit="1" x1="6.029" y1="53.746" x2="6.029" y2="135.401"/>
				<g>
					<path d="M2.61,148.039v-8.59h2.959c0.668,0,1.178,0.041,1.529,0.123c0.492,0.113,0.912,0.318,1.26,0.615
						c0.453,0.383,0.792,0.872,1.017,1.468s0.337,1.276,0.337,2.042c0,0.652-0.076,1.23-0.229,1.734s-0.348,0.921-0.586,1.251
						s-0.499,0.59-0.782,0.779s-0.625,0.333-1.025,0.431s-0.86,0.146-1.38,0.146H2.61z M3.747,147.025h1.834
						c0.566,0,1.011-0.053,1.333-0.158s0.579-0.254,0.771-0.445c0.27-0.27,0.479-0.632,0.63-1.087s0.226-1.007,0.226-1.655
						c0-0.898-0.147-1.589-0.442-2.071s-0.653-0.806-1.075-0.97c-0.305-0.117-0.795-0.176-1.471-0.176H3.747V147.025z"/>
				</g>
			</g>
			
				<line fill="none" stroke="#000000" stroke-width="0.4678" stroke-linecap="round" stroke-linejoin="round" stroke-miterlimit="1" x1="30.02" y1="49.774" x2="3.088" y2="49.774"/>
			
				<line fill="none" stroke="#000000" stroke-width="0.4678" stroke-linecap="round" stroke-linejoin="round" stroke-miterlimit="1" x1="29.645" y1="236.699" x2="3.088" y2="236.699"/>
		</g>
		<g>
			<g>
				
					<line fill="none" stroke="#000000" stroke-width="0.4678" stroke-linecap="round" stroke-linejoin="round" stroke-miterlimit="1" x1="56.768" y1="26.428" x2="66.983" y2="26.428"/>
				
					<line fill="none" stroke="#000000" stroke-width="0.4678" stroke-linecap="round" stroke-linejoin="round" stroke-miterlimit="1" x1="35.038" y1="26.428" x2="44.783" y2="26.428"/>
				<g>
					<path d="M54.502,28.005l1.137,0.287c-0.238,0.934-0.667,1.646-1.286,2.136s-1.376,0.735-2.271,0.735
						c-0.926,0-1.679-0.188-2.259-0.565s-1.021-0.923-1.324-1.638s-0.454-1.482-0.454-2.303c0-0.895,0.171-1.675,0.513-2.341
						s0.828-1.172,1.459-1.518s1.325-0.519,2.083-0.519c0.859,0,1.582,0.219,2.168,0.656s0.994,1.053,1.225,1.846l-1.119,0.264
						c-0.199-0.625-0.488-1.08-0.867-1.365s-0.855-0.428-1.43-0.428c-0.66,0-1.212,0.158-1.655,0.475s-0.755,0.741-0.935,1.274
						s-0.27,1.083-0.27,1.649c0,0.73,0.106,1.368,0.319,1.913s0.544,0.952,0.993,1.222s0.936,0.404,1.459,0.404
						c0.637,0,1.176-0.184,1.617-0.551S54.346,28.728,54.502,28.005z"/>
				</g>
			</g>
			
				<line fill="none" stroke="#000000" stroke-width="0.4678" stroke-linecap="round" stroke-linejoin="round" stroke-miterlimit="1" x1="31.066" y1="48.582" x2="31.066" y2="4.771"/>
			
				<line fill="none" stroke="#000000" stroke-width="0.4678" stroke-linecap="round" stroke-linejoin="round" stroke-miterlimit="1" x1="70.948" y1="48.654" x2="70.948" y2="23.488"/>
			<g>
				
					<line fill="none" stroke="#000000" stroke-width="0.4678" stroke-linecap="round" stroke-linejoin="round" stroke-miterlimit="1" x1="63.4" y1="122.058" x2="77.141" y2="122.058"/>
				
					<line fill="none" stroke="#000000" stroke-width="0.4678" stroke-linecap="round" stroke-linejoin="round" stroke-miterlimit="1" x1="35.355" y1="122.058" x2="49.54" y2="122.058"/>
				<g>
					<path d="M53.473,127.381v-8.59h3.223c0.656,0,1.183,0.087,1.579,0.261s0.707,0.441,0.932,0.803s0.337,0.739,0.337,1.134
						c0,0.367-0.1,0.713-0.299,1.037s-0.5,0.586-0.902,0.785c0.52,0.152,0.919,0.412,1.198,0.779s0.419,0.801,0.419,1.301
						c0,0.402-0.085,0.776-0.255,1.122s-0.38,0.612-0.63,0.8s-0.563,0.329-0.94,0.425s-0.839,0.144-1.386,0.144H53.473z
						 M54.609,122.4h1.857c0.504,0,0.865-0.033,1.084-0.1c0.289-0.086,0.507-0.229,0.653-0.428s0.22-0.449,0.22-0.75
						c0-0.285-0.068-0.536-0.205-0.753s-0.332-0.365-0.586-0.445s-0.689-0.12-1.307-0.12h-1.717V122.4z M54.609,126.367h2.139
						c0.367,0,0.625-0.014,0.773-0.041c0.262-0.047,0.48-0.125,0.656-0.234s0.32-0.269,0.434-0.478s0.17-0.45,0.17-0.724
						c0-0.32-0.082-0.599-0.246-0.835s-0.392-0.402-0.683-0.498s-0.71-0.144-1.257-0.144h-1.986V126.367z"/>
				</g>
			</g>
			
				<line fill="none" stroke="#000000" stroke-width="0.4678" stroke-linecap="round" stroke-linejoin="round" stroke-miterlimit="1" x1="82.09" y1="66.332" x2="82.09" y2="4.96"/>
		</g>
		<g>
			<g>
				
					<line fill="none" stroke="#000000" stroke-width="0.4678" stroke-linecap="round" stroke-linejoin="round" stroke-miterlimit="1" x1="105.061" y1="151.117" x2="105.061" y2="199.77"/>
				
					<line fill="none" stroke="#000000" stroke-width="0.4678" stroke-linecap="round" stroke-linejoin="round" stroke-miterlimit="1" x1="105.061" y1="86.687" x2="105.061" y2="136.021"/>
				<g>
					<path d="M106.399,148.037v-0.785c-0.395,0.617-0.975,0.926-1.74,0.926c-0.496,0-0.951-0.137-1.367-0.41
						s-0.738-0.655-0.967-1.146s-0.344-1.054-0.344-1.69c0-0.621,0.104-1.185,0.311-1.69s0.518-0.894,0.932-1.163
						s0.877-0.404,1.389-0.404c0.375,0,0.709,0.079,1.002,0.237s0.531,0.364,0.715,0.618v-3.082h1.049v8.59H106.399z
						 M103.065,144.932c0,0.797,0.168,1.393,0.504,1.787s0.732,0.592,1.189,0.592c0.461,0,0.854-0.188,1.176-0.565
						s0.482-0.952,0.482-1.726c0-0.852-0.164-1.477-0.492-1.875s-0.732-0.598-1.213-0.598c-0.469,0-0.859,0.191-1.174,0.574
						S103.065,144.107,103.065,144.932z"/>
				</g>
			</g>
			
				<line fill="none" stroke="#000000" stroke-width="0.4678" stroke-linecap="round" stroke-linejoin="round" stroke-miterlimit="1" x1="84.399" y1="82.715" x2="108" y2="82.715"/>
			
				<line fill="none" stroke="#000000" stroke-width="0.4678" stroke-linecap="round" stroke-linejoin="round" stroke-miterlimit="1" x1="81.52" y1="203.734" x2="108" y2="203.734"/>
		</g>
		<g>
			<g>
				
					<line fill="none" stroke="#000000" stroke-width="0.4678" stroke-linecap="round" stroke-linejoin="round" stroke-miterlimit="1" x1="123.752" y1="152.227" x2="123.752" y2="215.469"/>
				
					<line fill="none" stroke="#000000" stroke-width="0.4678" stroke-linecap="round" stroke-linejoin="round" stroke-miterlimit="1" x1="123.752" y1="70.683" x2="123.752" y2="135.869"/>
				<g>
					<path d="M122.622,148.037v-0.785c-0.395,0.617-0.975,0.926-1.74,0.926c-0.496,0-0.953-0.137-1.369-0.41
						s-0.738-0.655-0.967-1.146s-0.342-1.054-0.342-1.69c0-0.621,0.104-1.185,0.311-1.69s0.518-0.894,0.932-1.163
						s0.877-0.404,1.389-0.404c0.375,0,0.709,0.079,1.002,0.237s0.531,0.364,0.715,0.618v-3.082h1.049v8.59H122.622z
						 M119.288,144.932c0,0.797,0.168,1.393,0.504,1.787s0.732,0.592,1.189,0.592c0.461,0,0.852-0.188,1.174-0.565
						s0.484-0.952,0.484-1.726c0-0.852-0.164-1.477-0.492-1.875s-0.732-0.598-1.213-0.598c-0.469,0-0.861,0.191-1.176,0.574
						S119.288,144.107,119.288,144.932z"/>
					<path d="M127.821,150.512h-0.791v-5.041c-0.191,0.183-0.441,0.364-0.75,0.545c-0.309,0.183-0.586,0.318-0.832,0.409v-0.765
						c0.441-0.208,0.828-0.46,1.16-0.756c0.33-0.296,0.564-0.583,0.703-0.861h0.51V150.512z"/>
				</g>
			</g>
			
				<line fill="none" stroke="#000000" stroke-width="0.4678" stroke-linecap="round" stroke-linejoin="round" stroke-miterlimit="1" x1="82.895" y1="66.711" x2="126.692" y2="66.711"/>
			
				<line fill="none" stroke="#000000" stroke-width="0.4678" stroke-linecap="round" stroke-linejoin="round" stroke-miterlimit="1" x1="82.77" y1="219.434" x2="126.692" y2="219.434"/>
		</g>
		<g>
			<g>
				
					<line fill="none" stroke="#000000" stroke-width="0.4678" stroke-linecap="round" stroke-linejoin="round" stroke-miterlimit="1" x1="58.166" y1="260.023" x2="68.278" y2="260.043"/>
				
					<line fill="none" stroke="#000000" stroke-width="0.4678" stroke-linecap="round" stroke-linejoin="round" stroke-miterlimit="1" x1="35.539" y1="259.992" x2="46.286" y2="260.01"/>
				<g>
					<path d="M54.193,262.297c-0.391,0.332-0.767,0.566-1.128,0.703s-0.749,0.205-1.163,0.205c-0.684,0-1.209-0.167-1.576-0.501
						s-0.551-0.761-0.551-1.28c0-0.305,0.069-0.583,0.208-0.835s0.32-0.454,0.545-0.606s0.478-0.268,0.759-0.346
						c0.207-0.055,0.52-0.107,0.938-0.158c0.852-0.102,1.479-0.223,1.881-0.363c0.004-0.145,0.006-0.236,0.006-0.275
						c0-0.43-0.1-0.732-0.299-0.908c-0.27-0.238-0.67-0.357-1.201-0.357c-0.496,0-0.862,0.087-1.099,0.261s-0.411,0.481-0.524,0.923
						l-1.031-0.141c0.094-0.441,0.248-0.798,0.463-1.069s0.525-0.48,0.932-0.627s0.877-0.22,1.412-0.22
						c0.531,0,0.963,0.062,1.295,0.188s0.576,0.282,0.732,0.472s0.266,0.429,0.328,0.718c0.035,0.18,0.053,0.504,0.053,0.973v1.406
						c0,0.98,0.022,1.601,0.067,1.86s0.134,0.509,0.267,0.747h-1.102C54.295,262.846,54.225,262.59,54.193,262.297z M54.105,259.941
						c-0.383,0.156-0.957,0.289-1.723,0.398c-0.434,0.062-0.74,0.133-0.92,0.211s-0.318,0.192-0.416,0.343s-0.146,0.317-0.146,0.501
						c0,0.281,0.106,0.516,0.319,0.703s0.524,0.281,0.935,0.281c0.406,0,0.768-0.089,1.084-0.267s0.549-0.421,0.697-0.729
						c0.113-0.238,0.17-0.59,0.17-1.055V259.941z"/>
				</g>
			</g>
			
				<line fill="none" stroke="#000000" stroke-width="0.4678" stroke-linecap="round" stroke-linejoin="round" stroke-miterlimit="1" x1="31.066" y1="237.707" x2="31.066" y2="262.938"/>
			
				<line fill="none" stroke="#000000" stroke-width="0.4678" stroke-linecap="round" stroke-linejoin="round" stroke-miterlimit="1" x1="73.721" y1="145.381" x2="73.721" y2="263.047"/>
		</g>
		<g>
			<path d="M33.999,45.344v-6.223h0.949v0.943c0.242-0.441,0.466-0.732,0.671-0.873s0.431-0.211,0.677-0.211
				c0.355,0,0.717,0.113,1.084,0.34l-0.363,0.979c-0.258-0.152-0.516-0.229-0.773-0.229c-0.23,0-0.438,0.069-0.621,0.208
				s-0.314,0.331-0.393,0.577c-0.117,0.375-0.176,0.785-0.176,1.23v3.258H33.999z"/>
			<path d="M40.125,47.819v-1.542H37.33v-0.725l2.94-4.175h0.646v4.175h0.87v0.725h-0.87v1.542H40.125z M40.125,45.551v-2.905
				l-2.017,2.905H40.125z"/>
		</g>
		<g>
			<path d="M84.35,78.729v-6.223h0.949v0.943c0.242-0.441,0.467-0.732,0.672-0.873s0.43-0.211,0.676-0.211
				c0.355,0,0.717,0.113,1.084,0.34l-0.363,0.979c-0.258-0.152-0.516-0.229-0.773-0.229c-0.23,0-0.438,0.069-0.621,0.208
				s-0.314,0.331-0.393,0.577c-0.117,0.375-0.176,0.785-0.176,1.23v3.258H84.35z"/>
			<path d="M90.92,81.204h-0.791v-5.041c-0.191,0.182-0.439,0.363-0.75,0.545c-0.309,0.182-0.586,0.318-0.832,0.409v-0.765
				c0.441-0.208,0.828-0.46,1.16-0.756c0.33-0.296,0.564-0.583,0.703-0.861h0.51V81.204z"/>
		</g>
		<g>
			<path d="M70.161,92.394v-6.223h0.949v0.943c0.242-0.441,0.467-0.732,0.672-0.873s0.43-0.211,0.676-0.211
				c0.355,0,0.717,0.113,1.084,0.34l-0.363,0.979c-0.258-0.152-0.516-0.229-0.773-0.229c-0.23,0-0.438,0.069-0.621,0.208
				s-0.314,0.331-0.393,0.577c-0.117,0.375-0.176,0.785-0.176,1.23v3.258H70.161z"/>
			<path d="M77.909,94.108v0.76h-4.258c-0.006-0.19,0.023-0.374,0.092-0.549c0.107-0.29,0.281-0.576,0.521-0.857
				c0.238-0.281,0.582-0.606,1.033-0.976c0.701-0.574,1.174-1.029,1.42-1.364s0.369-0.653,0.369-0.952
				c0-0.313-0.111-0.578-0.336-0.793c-0.225-0.215-0.516-0.323-0.877-0.323c-0.381,0-0.686,0.114-0.914,0.343
				s-0.344,0.545-0.348,0.949l-0.812-0.083c0.057-0.606,0.266-1.068,0.629-1.387c0.363-0.317,0.852-0.477,1.463-0.477
				c0.619,0,1.107,0.171,1.469,0.514c0.359,0.343,0.539,0.768,0.539,1.274c0,0.258-0.053,0.511-0.158,0.76s-0.279,0.511-0.523,0.787
				c-0.246,0.275-0.652,0.653-1.221,1.134c-0.475,0.398-0.779,0.669-0.914,0.811s-0.246,0.285-0.334,0.428H77.909z"/>
		</g>
		<g>
			<path d="M19.67,59.725v-6.223h0.949v0.943c0.242-0.441,0.466-0.732,0.671-0.873s0.431-0.211,0.677-0.211
				c0.355,0,0.717,0.113,1.084,0.34l-0.363,0.979c-0.258-0.152-0.516-0.229-0.773-0.229c-0.23,0-0.438,0.069-0.621,0.208
				s-0.314,0.331-0.393,0.577c-0.117,0.375-0.176,0.785-0.176,1.23v3.258H19.67z"/>
			<path d="M23.265,60.499l0.791-0.105c0.091,0.448,0.245,0.771,0.464,0.969c0.218,0.197,0.484,0.296,0.797,0.296
				c0.372,0,0.686-0.129,0.943-0.387c0.256-0.258,0.384-0.577,0.384-0.958c0-0.363-0.119-0.663-0.356-0.899
				c-0.237-0.235-0.539-0.354-0.905-0.354c-0.149,0-0.335,0.029-0.558,0.088l0.088-0.694c0.053,0.006,0.095,0.009,0.127,0.009
				c0.337,0,0.64-0.088,0.91-0.264s0.404-0.447,0.404-0.813c0-0.29-0.098-0.53-0.294-0.721s-0.45-0.286-0.76-0.286
				c-0.308,0-0.564,0.097-0.769,0.29s-0.337,0.483-0.396,0.87l-0.791-0.141c0.097-0.53,0.316-0.941,0.659-1.232
				s0.769-0.438,1.279-0.438c0.352,0,0.675,0.076,0.971,0.227s0.522,0.356,0.679,0.617s0.235,0.538,0.235,0.831
				c0,0.278-0.075,0.532-0.224,0.76s-0.371,0.41-0.664,0.545c0.381,0.088,0.677,0.271,0.888,0.547
				c0.211,0.277,0.316,0.624,0.316,1.04c0,0.562-0.205,1.04-0.615,1.43c-0.41,0.392-0.929,0.587-1.556,0.587
				c-0.565,0-1.035-0.168-1.408-0.505C23.53,61.472,23.317,61.035,23.265,60.499z"/>
		</g>
		
			<path fill="none" stroke="#000000" stroke-width="0.4678" stroke-linecap="round" stroke-linejoin="round" stroke-miterlimit="1" stroke-dasharray="26.4,1.98,0.66,1.98" d="
			M73.364,142.48"/>
		
			<line fill="none" stroke="#000000" stroke-width="0.4678" stroke-linecap="round" stroke-linejoin="round" stroke-miterlimit="1" stroke-dasharray="36.4818,1.871,0.9354,1.871" x1="73.364" y1="143.34" x2="49.911" y2="55.785"/>
		
			<line fill="none" stroke="#000000" stroke-width="0.4678" stroke-linecap="round" stroke-linejoin="round" stroke-miterlimit="1" stroke-dasharray="36.4818,1.871,0.9354,1.871" x1="73.364" y1="143.34" x2="49.911" y2="231.85"/>
		<polygon points="65.266,258.883 73.684,260.051 65.266,261.225 		"/>
		<polygon points="39.485,27.601 31.066,26.428 39.485,25.257 		"/>
		<polygon points="62.529,25.257 70.948,26.428 62.529,27.601 		"/>
		<polygon points="4.857,58.111 6.029,49.774 7.2,58.111 		"/>
		<polygon points="122.581,75.048 123.752,66.711 124.922,75.048 		"/>
		<polygon points="103.889,91.051 105.061,82.715 106.235,91.051 		"/>
		<polygon points="106.235,195.396 105.061,203.734 103.889,195.396 		"/>
		<polygon points="124.922,211.096 123.752,219.434 122.581,211.096 		"/>
		<polygon points="7.2,228.361 6.029,236.699 4.857,228.361 		"/>
		<polygon points="39.485,261.166 31.066,259.992 39.485,258.822 		"/>
		<polygon points="39.587,123.229 31.168,122.058 39.587,120.884 		"/>
		<polygon points="73.616,120.884 82.034,122.058 73.616,123.229 		"/>
		
			<line fill="none" stroke="#000000" stroke-width="0.4678" stroke-linecap="round" stroke-linejoin="round" stroke-miterlimit="1" x1="62.876" y1="7.652" x2="77.989" y2="7.652"/>
		
			<line fill="none" stroke="#000000" stroke-width="0.4678" stroke-linecap="round" stroke-linejoin="round" stroke-miterlimit="1" x1="35.038" y1="7.652" x2="50.89" y2="7.652"/>
		<polygon points="39.485,8.824 31.066,7.652 39.485,6.481 		"/>
		<polygon points="73.649,6.481 82.067,7.652 73.649,8.824 		"/>
	</g>
	<g>
		<path d="M56.497,12.887V5.311h-2.83V4.297h6.809v1.014h-2.842v7.576H56.497z"/>
	</g>
</g>
</svg>
