<?xml version="1.0" encoding="utf-8"?>
<!-- Generator: Adobe Illustrator 15.1.0, SVG Export Plug-In . SVG Version: 6.00 Build 0)  -->
<!DOCTYPE svg PUBLIC "-//W3C//DTD SVG 1.1//EN" "http://www.w3.org/Graphics/SVG/1.1/DTD/svg11.dtd">
<svg version="1.1" id="Lager_1" xmlns="http://www.w3.org/2000/svg" xmlns:xlink="http://www.w3.org/1999/xlink" x="0px" y="0px"
	 width="218.354px" height="218.776px" viewBox="0 0 218.354 218.776" enable-background="new 0 0 218.354 218.776"
	 xml:space="preserve">
<g>
	
		<line fill="none" stroke="#000000" stroke-width="0.4678" stroke-linecap="round" stroke-linejoin="round" stroke-miterlimit="1" stroke-dasharray="21.1202,1.8708,0.9354,1.8708" x1="43.319" y1="123.921" x2="88.836" y2="123.921"/>
</g>
<g>
	
		<line fill="none" stroke="#000000" stroke-width="0.7484" stroke-linecap="round" stroke-linejoin="round" stroke-miterlimit="1" x1="46.575" y1="36.55" x2="46.575" y2="58.805"/>
	
		<line fill="none" stroke="#000000" stroke-width="0.7484" stroke-linecap="round" stroke-linejoin="round" stroke-miterlimit="1" x1="85.863" y1="36.704" x2="85.863" y2="58.989"/>
	
		<line fill="none" stroke="#000000" stroke-width="0.7484" stroke-linecap="round" stroke-linejoin="round" stroke-miterlimit="1" x1="85.863" y1="69.238" x2="85.863" y2="123.778"/>
	
		<line fill="none" stroke="#000000" stroke-width="0.7484" stroke-linecap="round" stroke-linejoin="round" stroke-miterlimit="1" x1="46.575" y1="69.226" x2="46.575" y2="123.778"/>
	<g>
		
			<path fill="#CAD4ED" stroke="#000000" stroke-width="0.7484" stroke-linecap="round" stroke-linejoin="round" stroke-miterlimit="1" d="
			M54.059,62.12H78.38v-4.464h6.343c0.305,0,0.594,0.122,0.807,0.335c0.217,0.213,0.334,0.503,0.334,0.806v10.441
			c0,0.86-0.34,1.68-0.945,2.287c-0.609,0.607-1.43,0.948-2.287,0.948H49.822c-0.863,0-1.686-0.341-2.296-0.953
			c-0.61-0.607-0.951-1.432-0.951-2.295l0,0V58.759l0,0c0-0.607,0.495-1.103,1.103-1.103h6.381V62.12z"/>
	</g>
	<g>
		
			<path fill="#CAD4ED" stroke="#000000" stroke-width="0.7484" stroke-linecap="round" stroke-linejoin="round" stroke-miterlimit="1" d="
			M54.059,39.667H78.38l6.394-1.727c0.645-0.175,1.09-0.758,1.09-1.427v-3.798l0,0c0-0.622-0.246-1.211-0.684-1.653
			c-0.441-0.438-1.033-0.685-1.654-0.685H48.914c-1.291,0-2.339,1.048-2.339,2.338l0,0v3.788c0,0.674,0.45,1.262,1.103,1.438
			L54.059,39.667z"/>
	</g>
	<g>
		<g>
			
				<path fill="#CAD4ED" stroke="#000000" stroke-width="0.5612" stroke-linecap="round" stroke-linejoin="round" stroke-miterlimit="1" d="
				M83.295,45.946"/>
			
				<rect x="78.586" y="45.946" fill="#CAD4ED" stroke="#000000" stroke-width="0.5612" stroke-linecap="round" stroke-linejoin="round" stroke-miterlimit="1" width="4.709" height="6.883"/>
			
				<line fill="none" stroke="#000000" stroke-width="0.5612" stroke-linecap="round" stroke-linejoin="round" stroke-miterlimit="1" x1="83.295" y1="52.829" x2="83.295" y2="57.235"/>
		</g>
		<g>
			
				<polyline fill="#CAD4ED" stroke="#000000" stroke-width="0.5612" stroke-linecap="round" stroke-linejoin="round" stroke-miterlimit="1" points="
				49.158,45.946 49.158,52.829 53.868,52.829 53.868,45.946 49.158,45.946 			"/>
			
				<line fill="none" stroke="#000000" stroke-width="0.5612" stroke-linecap="round" stroke-linejoin="round" stroke-miterlimit="1" x1="49.158" y1="52.829" x2="49.158" y2="57.235"/>
		</g>
	</g>
	<g>
		
			<path fill="none" stroke="#000000" stroke-width="0.7484" stroke-linecap="round" stroke-linejoin="round" stroke-miterlimit="1" d="
			M76.496,62.226c0.501,0,0.979-0.198,1.333-0.553c0.353-0.354,0.551-0.833,0.551-2.334V40.666c0,0.497-0.198,0.019-0.554-0.336
			c-0.354-0.358-0.834-0.557-1.338-0.557H56.005c-0.517,0-1.009,0.207-1.376,0.57c-0.365,0.368-0.57,0.861-0.57,1.377v-0.999v18.534
			v0.999c0,0.525,0.206,1.023,0.577,1.393c0.37,0.371,0.868,0.578,1.392,0.578H76.496z"/>
	</g>
</g>
<g>
	
		<line fill="none" stroke="#000000" stroke-width="0.7484" stroke-linecap="round" stroke-linejoin="round" stroke-miterlimit="1" x1="46.575" y1="211.007" x2="46.575" y2="188.749"/>
	
		<line fill="none" stroke="#000000" stroke-width="0.7484" stroke-linecap="round" stroke-linejoin="round" stroke-miterlimit="1" x1="85.863" y1="210.851" x2="85.863" y2="188.565"/>
	
		<line fill="none" stroke="#000000" stroke-width="0.7484" stroke-linecap="round" stroke-linejoin="round" stroke-miterlimit="1" x1="85.863" y1="178.315" x2="85.863" y2="123.778"/>
	
		<line fill="none" stroke="#000000" stroke-width="0.7484" stroke-linecap="round" stroke-linejoin="round" stroke-miterlimit="1" x1="46.575" y1="178.327" x2="46.575" y2="123.778"/>
	<g>
		
			<path fill="#CAD4ED" stroke="#000000" stroke-width="0.7484" stroke-linecap="round" stroke-linejoin="round" stroke-miterlimit="1" d="
			M54.059,185.438H78.38v4.461h6.343c0.305,0,0.594-0.123,0.807-0.334c0.217-0.217,0.334-0.508,0.334-0.809v-10.441
			c0-0.857-0.34-1.678-0.945-2.283c-0.609-0.609-1.43-0.949-2.287-0.949H49.822c-0.863,0-1.686,0.342-2.296,0.949
			c-0.61,0.609-0.951,1.434-0.951,2.295l0,0v10.467l0,0c0,0.605,0.495,1.105,1.103,1.105h6.381V185.438z"/>
	</g>
	<g>
		
			<path fill="#CAD4ED" stroke="#000000" stroke-width="0.7484" stroke-linecap="round" stroke-linejoin="round" stroke-miterlimit="1" d="
			M54.059,207.888H78.38l6.394,1.729c0.645,0.172,1.09,0.758,1.09,1.424v3.795l0,0c0,0.623-0.246,1.215-0.684,1.656
			c-0.441,0.441-1.033,0.684-1.654,0.684H48.914c-1.291,0-2.339-1.043-2.339-2.34l0,0v-3.785c0-0.674,0.45-1.262,1.103-1.436
			L54.059,207.888z"/>
	</g>
	<g>
		<g>
			
				<polyline fill="#CAD4ED" stroke="#000000" stroke-width="0.5612" stroke-linecap="round" stroke-linejoin="round" stroke-miterlimit="1" points="
				83.295,201.608 83.295,194.724 78.586,194.724 78.586,201.608 83.295,201.608 			"/>
			
				<line fill="none" stroke="#000000" stroke-width="0.5612" stroke-linecap="round" stroke-linejoin="round" stroke-miterlimit="1" x1="83.295" y1="194.724" x2="83.295" y2="190.323"/>
		</g>
		<g>
			
				<polyline fill="#CAD4ED" stroke="#000000" stroke-width="0.5612" stroke-linecap="round" stroke-linejoin="round" stroke-miterlimit="1" points="
				49.158,201.608 49.158,194.724 53.868,194.724 53.868,201.608 49.158,201.608 			"/>
			
				<line fill="none" stroke="#000000" stroke-width="0.5612" stroke-linecap="round" stroke-linejoin="round" stroke-miterlimit="1" x1="49.158" y1="194.724" x2="49.158" y2="190.323"/>
		</g>
	</g>
	<g>
		
			<path fill="none" stroke="#000000" stroke-width="0.7484" stroke-linecap="round" stroke-linejoin="round" stroke-miterlimit="1" d="
			M76.496,185.333c0.501,0,0.979,0.193,1.333,0.549c0.353,0.354,0.551,0.832,0.551,2.334v18.676c0-0.5-0.198-0.02-0.554,0.334
			c-0.354,0.355-0.834,0.555-1.338,0.555H56.005c-0.517,0-1.009-0.205-1.376-0.572c-0.365-0.367-0.57-0.859-0.57-1.375v1.002V188.3
			v-1c0-0.523,0.206-1.023,0.577-1.395c0.37-0.367,0.868-0.572,1.392-0.572H76.496z"/>
	</g>
</g>
<g>
	<g>
		
			<line fill="none" stroke="#000000" stroke-width="0.4678" stroke-linecap="round" stroke-linejoin="round" stroke-miterlimit="1" x1="23.189" y1="131.096" x2="23.189" y2="201.638"/>
		
			<line fill="none" stroke="#000000" stroke-width="0.4678" stroke-linecap="round" stroke-linejoin="round" stroke-miterlimit="1" x1="23.189" y1="44.697" x2="23.189" y2="116.387"/>
		<polygon points="22.001,48.207 23.189,39.748 24.379,48.207 		"/>
		<polygon points="24.379,199.298 23.189,207.755 22.001,199.298 		"/>
		<g>
			<path d="M20.106,128.062v-8.59h6.211v1.014h-5.074v2.631h4.752v1.008h-4.752v2.924h5.273v1.014H20.106z"/>
		</g>
	</g>
	
		<line fill="none" stroke="#000000" stroke-width="0.4678" stroke-linecap="round" stroke-linejoin="round" stroke-miterlimit="1" x1="50.021" y1="39.667" x2="20.994" y2="39.667"/>
	
		<line fill="none" stroke="#000000" stroke-width="0.4678" stroke-linecap="round" stroke-linejoin="round" stroke-miterlimit="1" x1="50.021" y1="207.78" x2="20.994" y2="207.78"/>
</g>
<g>
	<g>
		
			<line fill="none" stroke="#000000" stroke-width="0.4678" stroke-linecap="round" stroke-linejoin="round" stroke-miterlimit="1" x1="4.502" y1="131.096" x2="4.502" y2="211.032"/>
		
			<line fill="none" stroke="#000000" stroke-width="0.4678" stroke-linecap="round" stroke-linejoin="round" stroke-miterlimit="1" x1="4.502" y1="36.311" x2="4.502" y2="116.387"/>
		<polygon points="3.314,38.915 4.502,30.458 5.69,38.915 		"/>
		<polygon points="5.69,208.692 4.502,217.149 3.314,208.692 		"/>
		<g>
			<path d="M0.926,128.062v-8.59h2.959c0.668,0,1.178,0.041,1.529,0.123c0.492,0.113,0.912,0.318,1.26,0.615
				c0.453,0.383,0.792,0.872,1.017,1.468s0.337,1.276,0.337,2.042c0,0.652-0.076,1.23-0.229,1.734s-0.348,0.921-0.586,1.251
				s-0.499,0.59-0.782,0.779s-0.625,0.333-1.025,0.431s-0.86,0.146-1.38,0.146H0.926z M2.062,127.049h1.834
				c0.566,0,1.011-0.053,1.333-0.158s0.579-0.254,0.771-0.445c0.27-0.27,0.479-0.632,0.63-1.087s0.226-1.007,0.226-1.655
				c0-0.898-0.147-1.589-0.442-2.071s-0.653-0.806-1.075-0.97c-0.305-0.117-0.795-0.176-1.471-0.176H2.062V127.049z"/>
		</g>
	</g>
	
		<line fill="none" stroke="#000000" stroke-width="0.4678" stroke-linecap="round" stroke-linejoin="round" stroke-miterlimit="1" x1="44.986" y1="30.378" x2="2.305" y2="30.378"/>
	
		<line fill="none" stroke="#000000" stroke-width="0.4678" stroke-linecap="round" stroke-linejoin="round" stroke-miterlimit="1" x1="44.744" y1="217.175" x2="2.305" y2="217.175"/>
</g>
<g>
	<g>
		
			<line fill="none" stroke="#000000" stroke-width="0.4678" stroke-linecap="round" stroke-linejoin="round" stroke-miterlimit="1" x1="72.624" y1="6.992" x2="80.116" y2="6.992"/>
		
			<line fill="none" stroke="#000000" stroke-width="0.4678" stroke-linecap="round" stroke-linejoin="round" stroke-miterlimit="1" x1="51.439" y1="6.992" x2="60.651" y2="6.992"/>
		<polygon points="55.125,8.182 46.668,6.992 55.125,5.804 		"/>
		<polygon points="77.341,5.804 85.802,6.992 77.341,8.182 		"/>
		<g>
			<path d="M63.88,11.736v-8.59h3.223c0.656,0,1.183,0.087,1.579,0.261s0.707,0.441,0.932,0.803s0.337,0.739,0.337,1.134
				c0,0.367-0.1,0.713-0.299,1.037s-0.5,0.586-0.902,0.785c0.52,0.152,0.919,0.412,1.198,0.779s0.419,0.801,0.419,1.301
				c0,0.402-0.085,0.776-0.255,1.122s-0.38,0.612-0.63,0.8s-0.563,0.329-0.94,0.425s-0.839,0.144-1.386,0.144H63.88z M65.017,6.756
				h1.857c0.504,0,0.865-0.033,1.084-0.1c0.289-0.086,0.507-0.229,0.653-0.428s0.22-0.449,0.22-0.75
				c0-0.285-0.068-0.536-0.205-0.753S68.294,4.36,68.04,4.28s-0.689-0.12-1.307-0.12h-1.717V6.756z M65.017,10.723h2.139
				c0.367,0,0.625-0.014,0.773-0.041c0.262-0.047,0.48-0.125,0.656-0.234s0.32-0.269,0.434-0.478s0.17-0.45,0.17-0.724
				c0-0.32-0.082-0.599-0.246-0.835s-0.392-0.402-0.683-0.498S67.55,7.77,67.003,7.77h-1.986V10.723z"/>
		</g>
	</g>
</g>
<g>
	<g>
		
			<line fill="none" stroke="#000000" stroke-width="0.4678" stroke-linecap="round" stroke-linejoin="round" stroke-miterlimit="1" x1="109.249" y1="131.096" x2="109.249" y2="169.931"/>
		
			<line fill="none" stroke="#000000" stroke-width="0.4678" stroke-linecap="round" stroke-linejoin="round" stroke-miterlimit="1" x1="109.249" y1="77.063" x2="109.249" y2="116.387"/>
		<polygon points="108.062,81.071 109.249,72.611 110.44,81.071 		"/>
		<polygon points="110.44,166.548 109.249,175.005 108.062,166.548 		"/>
		<g>
			<path d="M110.253,128.062v-0.785c-0.395,0.617-0.975,0.926-1.74,0.926c-0.496,0-0.952-0.137-1.368-0.41s-0.738-0.655-0.967-1.146
				s-0.343-1.054-0.343-1.69c0-0.621,0.104-1.185,0.311-1.69s0.518-0.894,0.932-1.163s0.877-0.404,1.389-0.404
				c0.375,0,0.709,0.079,1.002,0.237s0.531,0.364,0.715,0.618v-3.082h1.049v8.59H110.253z M106.919,124.957
				c0,0.797,0.168,1.393,0.504,1.787s0.732,0.592,1.189,0.592c0.461,0,0.853-0.188,1.175-0.565s0.483-0.952,0.483-1.726
				c0-0.852-0.164-1.477-0.492-1.875s-0.732-0.598-1.213-0.598c-0.469,0-0.86,0.191-1.175,0.574S106.919,124.133,106.919,124.957z"
				/>
		</g>
	</g>
	
		<line fill="none" stroke="#000000" stroke-width="0.4678" stroke-linecap="round" stroke-linejoin="round" stroke-miterlimit="1" x1="87.294" y1="72.477" x2="111.513" y2="72.474"/>
	
		<line fill="none" stroke="#000000" stroke-width="0.4678" stroke-linecap="round" stroke-linejoin="round" stroke-miterlimit="1" x1="87.483" y1="175.083" x2="112.019" y2="175.083"/>
</g>
<g>
	<g>
		
			<line fill="none" stroke="#000000" stroke-width="0.4678" stroke-linecap="round" stroke-linejoin="round" stroke-miterlimit="1" x1="127.937" y1="131.781" x2="127.937" y2="184.747"/>
		
			<line fill="none" stroke="#000000" stroke-width="0.4678" stroke-linecap="round" stroke-linejoin="round" stroke-miterlimit="1" x1="127.937" y1="62.246" x2="127.937" y2="116.387"/>
		<polygon points="126.749,66.253 127.937,57.794 129.128,66.253 		"/>
		<polygon points="129.128,181.356 127.937,189.817 126.749,181.356 		"/>
		<g>
			<path d="M126.899,128.242v-0.785c-0.395,0.617-0.975,0.926-1.74,0.926c-0.496,0-0.952-0.137-1.368-0.41s-0.738-0.655-0.967-1.146
				s-0.343-1.054-0.343-1.69c0-0.621,0.104-1.185,0.311-1.69s0.518-0.894,0.932-1.163s0.877-0.404,1.389-0.404
				c0.375,0,0.709,0.079,1.002,0.237s0.531,0.364,0.715,0.618v-3.082h1.049v8.59H126.899z M123.565,125.137
				c0,0.797,0.168,1.393,0.504,1.787s0.732,0.592,1.189,0.592c0.461,0,0.853-0.188,1.175-0.565s0.483-0.952,0.483-1.726
				c0-0.852-0.164-1.477-0.492-1.875s-0.732-0.598-1.213-0.598c-0.469,0-0.86,0.191-1.175,0.574S123.565,124.312,123.565,125.137z"
				/>
			<path d="M132.099,130.717h-0.791v-5.041c-0.191,0.183-0.44,0.364-0.75,0.545c-0.309,0.183-0.586,0.318-0.832,0.409v-0.765
				c0.441-0.208,0.828-0.46,1.16-0.756c0.33-0.296,0.564-0.583,0.703-0.861h0.51V130.717z"/>
		</g>
	</g>
	
		<line fill="none" stroke="#000000" stroke-width="0.4678" stroke-linecap="round" stroke-linejoin="round" stroke-miterlimit="1" x1="87.294" y1="57.656" x2="130.196" y2="57.656"/>
	
		<line fill="none" stroke="#000000" stroke-width="0.4678" stroke-linecap="round" stroke-linejoin="round" stroke-miterlimit="1" x1="87.294" y1="189.899" x2="130.702" y2="189.899"/>
</g>
<g>
	<path d="M36.48,68.48v-6.223h0.949v0.943c0.242-0.441,0.466-0.732,0.671-0.873s0.431-0.211,0.677-0.211
		c0.355,0,0.717,0.113,1.084,0.34l-0.363,0.979c-0.258-0.152-0.516-0.229-0.773-0.229c-0.23,0-0.438,0.069-0.621,0.208
		s-0.314,0.331-0.393,0.577c-0.117,0.375-0.176,0.785-0.176,1.23v3.258H36.48z"/>
	<path d="M43.051,70.955H42.26v-5.041c-0.191,0.183-0.44,0.364-0.75,0.545c-0.309,0.183-0.586,0.318-0.832,0.409v-0.765
		c0.441-0.208,0.828-0.46,1.16-0.756c0.33-0.296,0.564-0.583,0.703-0.861h0.51V70.955z"/>
</g>
<g>
	<path d="M49.173,81.912v-6.223h0.949v0.943c0.242-0.441,0.466-0.732,0.671-0.873s0.431-0.211,0.677-0.211
		c0.355,0,0.717,0.113,1.084,0.34l-0.363,0.979c-0.258-0.152-0.516-0.229-0.773-0.229c-0.23,0-0.438,0.069-0.621,0.208
		s-0.314,0.331-0.393,0.577c-0.117,0.375-0.176,0.785-0.176,1.23v3.258H49.173z"/>
	<path d="M56.921,83.627v0.76h-4.259c-0.006-0.19,0.024-0.373,0.093-0.549c0.107-0.291,0.281-0.576,0.521-0.857
		c0.238-0.281,0.583-0.606,1.034-0.976c0.7-0.574,1.174-1.029,1.42-1.364c0.246-0.336,0.369-0.652,0.369-0.951
		c0-0.313-0.112-0.578-0.336-0.794c-0.225-0.215-0.517-0.323-0.877-0.323c-0.381,0-0.686,0.115-0.914,0.344
		s-0.345,0.545-0.348,0.949l-0.812-0.084c0.056-0.606,0.265-1.068,0.629-1.387c0.362-0.317,0.851-0.477,1.463-0.477
		c0.618,0,1.107,0.172,1.468,0.514c0.36,0.344,0.54,0.769,0.54,1.275c0,0.258-0.053,0.511-0.158,0.76s-0.28,0.512-0.524,0.787
		c-0.245,0.275-0.651,0.653-1.22,1.133c-0.475,0.399-0.779,0.669-0.914,0.812c-0.135,0.142-0.246,0.285-0.334,0.429H56.921z"/>
</g>
<line fill="none" stroke="#000000" stroke-width="0.4678" stroke-linecap="round" stroke-linejoin="round" stroke-miterlimit="1" x1="46.531" y1="5.387" x2="46.531" y2="29.17"/>
<line fill="none" stroke="#000000" stroke-width="0.4678" stroke-linecap="round" stroke-linejoin="round" stroke-miterlimit="1" x1="85.884" y1="4.748" x2="85.884" y2="29.17"/>
<g>
	<path d="M88.487,37.687v-6.223h0.949v0.943c0.242-0.441,0.466-0.732,0.671-0.873s0.431-0.211,0.677-0.211
		c0.355,0,0.717,0.113,1.084,0.34l-0.363,0.979c-0.258-0.152-0.516-0.229-0.773-0.229c-0.23,0-0.438,0.069-0.621,0.208
		s-0.314,0.331-0.393,0.577c-0.117,0.375-0.176,0.785-0.176,1.23v3.258H88.487z"/>
	<path d="M92.082,38.461l0.791-0.105c0.091,0.448,0.245,0.771,0.464,0.969c0.218,0.197,0.483,0.296,0.797,0.296
		c0.372,0,0.687-0.129,0.943-0.387c0.256-0.258,0.385-0.577,0.385-0.958c0-0.363-0.119-0.663-0.356-0.899
		c-0.237-0.235-0.539-0.354-0.905-0.354c-0.149,0-0.336,0.029-0.559,0.088l0.088-0.694c0.053,0.006,0.096,0.009,0.128,0.009
		c0.337,0,0.64-0.088,0.909-0.264s0.404-0.447,0.404-0.813c0-0.29-0.098-0.53-0.294-0.721s-0.45-0.286-0.761-0.286
		c-0.307,0-0.563,0.097-0.769,0.29s-0.337,0.483-0.396,0.87l-0.791-0.141c0.097-0.53,0.316-0.941,0.659-1.232
		s0.769-0.438,1.278-0.438c0.352,0,0.676,0.076,0.972,0.227s0.522,0.356,0.679,0.617c0.157,0.261,0.235,0.538,0.235,0.831
		c0,0.278-0.075,0.532-0.224,0.76c-0.15,0.229-0.371,0.41-0.664,0.545c0.381,0.088,0.677,0.271,0.888,0.547
		c0.211,0.277,0.316,0.624,0.316,1.04c0,0.562-0.205,1.04-0.615,1.43c-0.41,0.392-0.929,0.587-1.556,0.587
		c-0.565,0-1.035-0.168-1.408-0.505C92.348,39.434,92.135,38.997,92.082,38.461z"/>
</g>
<g>
	<path d="M76.499,26.348v-6.223h0.949v0.943c0.242-0.441,0.466-0.732,0.671-0.873s0.431-0.211,0.677-0.211
		c0.355,0,0.717,0.113,1.084,0.34l-0.363,0.979c-0.258-0.152-0.516-0.229-0.773-0.229c-0.23,0-0.438,0.069-0.621,0.208
		s-0.314,0.331-0.393,0.577c-0.117,0.375-0.176,0.785-0.176,1.23v3.258H76.499z"/>
	<path d="M82.625,28.823V27.28H79.83v-0.725l2.94-4.175h0.646v4.175h0.87v0.725h-0.87v1.542H82.625z M82.625,26.555V23.65
		l-2.017,2.905H82.625z"/>
</g>
<g>
	
		<line fill="none" stroke="#000000" stroke-width="0.4678" stroke-linecap="round" stroke-linejoin="round" stroke-miterlimit="1" stroke-dasharray="21.1202,1.8708,0.9354,1.8708" x1="157.421" y1="123.921" x2="202.938" y2="123.921"/>
</g>
<line fill="none" stroke="#000000" stroke-width="0.7484" stroke-linecap="round" stroke-linejoin="round" stroke-miterlimit="1" x1="160.677" y1="36.55" x2="160.677" y2="123.921"/>
<line fill="none" stroke="#000000" stroke-width="0.7484" stroke-linecap="round" stroke-linejoin="round" stroke-miterlimit="1" x1="199.965" y1="36.704" x2="199.965" y2="57.656"/>
<line fill="none" stroke="#000000" stroke-width="0.7484" stroke-linecap="round" stroke-linejoin="round" stroke-miterlimit="1" x1="201.947" y1="69.238" x2="201.947" y2="123.778"/>
<line fill="none" stroke="#000000" stroke-width="0.7484" stroke-linecap="round" stroke-linejoin="round" stroke-miterlimit="1" x1="162.659" y1="69.226" x2="162.659" y2="123.778"/>
<path fill="#CAD4ED" stroke="#000000" stroke-width="0.7484" stroke-linecap="round" stroke-linejoin="round" stroke-miterlimit="1" d="
	M170.143,62.12h24.321v-4.464h6.343c0.305,0,0.594,0.122,0.807,0.335c0.217,0.213,0.334,0.503,0.334,0.806v10.441
	c0,0.86-0.34,1.68-0.945,2.287c-0.609,0.607-1.43,0.948-2.287,0.948h-32.809c-0.863,0-1.686-0.341-2.296-0.953
	c-0.61-0.607-0.951-1.432-0.951-2.295l0,0V58.759l0,0c0-0.607,0.495-1.103,1.103-1.103h6.381V62.12z"/>
<g>
	
		<path fill="#CAD4ED" stroke="#000000" stroke-width="0.7484" stroke-linecap="round" stroke-linejoin="round" stroke-miterlimit="1" d="
		M168.16,39.667h24.321l6.394-1.727c0.645-0.175,1.09-0.758,1.09-1.427v-3.798l0,0c0-0.622-0.246-1.211-0.684-1.653
		c-0.441-0.438-1.033-0.685-1.654-0.685h-34.611c-1.291,0-2.339,1.048-2.339,2.338l0,0v3.788c0,0.674,0.45,1.262,1.103,1.438
		L168.16,39.667z"/>
</g>
<g>
	
		<path fill="#CAD4ED" stroke="#000000" stroke-width="0.5612" stroke-linecap="round" stroke-linejoin="round" stroke-miterlimit="1" d="
		M199.379,45.946"/>
	
		<rect x="194.67" y="45.946" fill="#CAD4ED" stroke="#000000" stroke-width="0.5612" stroke-linecap="round" stroke-linejoin="round" stroke-miterlimit="1" width="4.709" height="6.883"/>
	
		<line fill="none" stroke="#000000" stroke-width="0.5612" stroke-linecap="round" stroke-linejoin="round" stroke-miterlimit="1" x1="199.379" y1="52.829" x2="199.379" y2="57.656"/>
</g>
<g>
	
		<polyline fill="#CAD4ED" stroke="#000000" stroke-width="0.5612" stroke-linecap="round" stroke-linejoin="round" stroke-miterlimit="1" points="
		165.242,45.946 165.242,52.829 169.952,52.829 169.952,45.946 165.242,45.946 	"/>
	
		<line fill="none" stroke="#000000" stroke-width="0.5612" stroke-linecap="round" stroke-linejoin="round" stroke-miterlimit="1" x1="165.242" y1="52.829" x2="165.242" y2="57.656"/>
</g>
<path fill="none" stroke="#000000" stroke-width="0.7484" stroke-linecap="round" stroke-linejoin="round" stroke-miterlimit="1" d="
	M192.58,62.112c0.501,0,0.979-0.198,1.333-0.553c0.353-0.354,0.551-0.833,0.551-2.334V41.382c0-0.469-0.198-0.811-0.554-1.165
	c-0.357-0.356-0.834-0.557-1.338-0.557h-20.483c-0.517,0-1.009,0.207-1.376,0.57c-0.365,0.368-0.57,0.861-0.57,1.377v17.535v0.999
	c0,0.525,0.206,1.023,0.577,1.393c0.37,0.371,0.868,0.578,1.392,0.578H192.58z"/>
<line fill="none" stroke="#000000" stroke-width="0.7484" stroke-linecap="round" stroke-linejoin="round" stroke-miterlimit="1" x1="160.677" y1="211.007" x2="160.677" y2="123.921"/>
<line fill="none" stroke="#000000" stroke-width="0.7484" stroke-linecap="round" stroke-linejoin="round" stroke-miterlimit="1" x1="199.965" y1="210.851" x2="199.965" y2="189.899"/>
<line fill="none" stroke="#000000" stroke-width="0.7484" stroke-linecap="round" stroke-linejoin="round" stroke-miterlimit="1" x1="201.947" y1="178.315" x2="201.947" y2="123.778"/>
<line fill="none" stroke="#000000" stroke-width="0.7484" stroke-linecap="round" stroke-linejoin="round" stroke-miterlimit="1" x1="162.659" y1="178.327" x2="162.659" y2="123.778"/>
<g>
	
		<path fill="#CAD4ED" stroke="#000000" stroke-width="0.7484" stroke-linecap="round" stroke-linejoin="round" stroke-miterlimit="1" d="
		M170.143,185.438h24.321v4.461h6.343c0.305,0,0.594-0.123,0.807-0.334c0.217-0.217,0.334-0.508,0.334-0.809v-10.441
		c0-0.857-0.34-1.678-0.945-2.283c-0.609-0.609-1.43-0.949-2.287-0.949h-32.809c-0.863,0-1.686,0.342-2.296,0.949
		c-0.61,0.609-0.951,1.434-0.951,2.295l0,0v10.467l0,0c0,0.605,0.495,1.105,1.103,1.105h6.381V185.438z"/>
</g>
<g>
	
		<path fill="#CAD4ED" stroke="#000000" stroke-width="0.7484" stroke-linecap="round" stroke-linejoin="round" stroke-miterlimit="1" d="
		M168.16,207.888h24.321l6.394,1.729c0.645,0.172,1.09,0.758,1.09,1.424v3.795l0,0c0,0.623-0.246,1.215-0.684,1.656
		c-0.441,0.441-1.033,0.684-1.654,0.684h-34.611c-1.291,0-2.339-1.043-2.339-2.34l0,0v-3.785c0-0.674,0.45-1.262,1.103-1.436
		L168.16,207.888z"/>
</g>
<g>
	<g>
		
			<polyline fill="#CAD4ED" stroke="#000000" stroke-width="0.5612" stroke-linecap="round" stroke-linejoin="round" stroke-miterlimit="1" points="
			199.379,201.608 199.379,194.724 194.67,194.724 194.67,201.608 199.379,201.608 		"/>
		
			<line fill="none" stroke="#000000" stroke-width="0.5612" stroke-linecap="round" stroke-linejoin="round" stroke-miterlimit="1" x1="199.379" y1="194.724" x2="199.379" y2="189.899"/>
	</g>
	<g>
		
			<polyline fill="#CAD4ED" stroke="#000000" stroke-width="0.5612" stroke-linecap="round" stroke-linejoin="round" stroke-miterlimit="1" points="
			165.242,201.608 165.242,194.724 169.952,194.724 169.952,201.608 165.242,201.608 		"/>
		
			<line fill="none" stroke="#000000" stroke-width="0.5612" stroke-linecap="round" stroke-linejoin="round" stroke-miterlimit="1" x1="165.242" y1="194.724" x2="165.242" y2="189.899"/>
	</g>
</g>
<g>
	
		<path fill="none" stroke="#000000" stroke-width="0.7484" stroke-linecap="round" stroke-linejoin="round" stroke-miterlimit="1" d="
		M192.58,185.418c0.501,0,0.979,0.193,1.333,0.549c0.353,0.354,0.551,0.832,0.551,2.334v17.936c0,0.547-0.198,0.721-0.554,1.074
		c-0.354,0.355-0.834,0.555-1.338,0.555h-20.483c-0.517,0-1.009-0.205-1.376-0.572c-0.365-0.367-0.57-0.859-0.57-1.375v-17.533v-1
		c0-0.523,0.206-1.023,0.577-1.395c0.37-0.367,0.868-0.572,1.392-0.572H192.58z"/>
</g>
<g>
	<path d="M178.722,8.44l1.043-0.164c0.059,0.418,0.223,0.738,0.49,0.961s0.641,0.334,1.121,0.334c0.484,0,0.844-0.099,1.078-0.296
		s0.352-0.429,0.352-0.694c0-0.238-0.104-0.426-0.311-0.562c-0.145-0.094-0.504-0.213-1.078-0.357
		c-0.773-0.195-1.309-0.364-1.607-0.507s-0.525-0.34-0.68-0.592s-0.232-0.53-0.232-0.835c0-0.277,0.064-0.534,0.191-0.771
		s0.299-0.433,0.518-0.589c0.164-0.121,0.389-0.224,0.672-0.308s0.586-0.126,0.91-0.126c0.488,0,0.918,0.07,1.287,0.211
		s0.641,0.331,0.816,0.571s0.297,0.562,0.363,0.964l-1.031,0.141c-0.047-0.32-0.182-0.57-0.406-0.75s-0.543-0.27-0.953-0.27
		c-0.484,0-0.83,0.08-1.037,0.24s-0.311,0.348-0.311,0.562c0,0.137,0.043,0.26,0.129,0.369c0.086,0.113,0.221,0.207,0.404,0.281
		c0.105,0.039,0.416,0.129,0.932,0.27c0.746,0.199,1.268,0.362,1.562,0.489s0.525,0.312,0.693,0.554s0.252,0.543,0.252,0.902
		c0,0.352-0.102,0.683-0.307,0.993s-0.502,0.551-0.889,0.721s-0.824,0.255-1.312,0.255c-0.809,0-1.424-0.168-1.848-0.504
		S178.839,9.101,178.722,8.44z"/>
</g>
<line fill="none" stroke="#000000" stroke-width="0.4678" stroke-linecap="round" stroke-linejoin="round" stroke-miterlimit="1" x1="201.947" y1="3.065" x2="201.947" y2="56.229"/>
<polygon points="210.445,8.177 202.014,6.992 210.445,5.806 "/>
<polygon points="191.59,8.177 200.023,6.992 191.59,5.806 "/>
<line fill="none" stroke="#000000" stroke-width="0.4678" stroke-linecap="round" stroke-linejoin="round" stroke-miterlimit="1" x1="199.965" y1="3.065" x2="199.965" y2="29.1"/>
<line fill="none" stroke="#000000" stroke-width="0.4678" stroke-linecap="round" stroke-linejoin="round" stroke-miterlimit="1" x1="216.35" y1="6.992" x2="206.426" y2="6.992"/>
<line fill="none" stroke="#000000" stroke-width="0.4678" stroke-linecap="round" stroke-linejoin="round" stroke-miterlimit="1" x1="195.58" y1="6.992" x2="185.834" y2="6.992"/>
</svg>
