<?xml version="1.0" encoding="utf-8"?>
<!-- Generator: Adobe Illustrator 15.1.0, SVG Export Plug-In . SVG Version: 6.00 Build 0)  -->
<!DOCTYPE svg PUBLIC "-//W3C//DTD SVG 1.1//EN" "http://www.w3.org/Graphics/SVG/1.1/DTD/svg11.dtd">
<svg version="1.1" id="Lager_1" xmlns="http://www.w3.org/2000/svg" xmlns:xlink="http://www.w3.org/1999/xlink" x="0px" y="0px"
	 width="160.692px" height="216.715px" viewBox="0 0 160.692 216.715" enable-background="new 0 0 160.692 216.715"
	 xml:space="preserve">
<path fill="none" stroke="#000000" stroke-width="0.7484" stroke-linecap="round" stroke-linejoin="round" d="M36.78,213.601
	c0,0.973,0.79,1.762,1.762,1.762h82.867c0.973,0,1.762-0.789,1.762-1.762v-8.906c0-0.973-0.789-1.762-1.762-1.762H38.542
	c-0.972,0-1.762,0.789-1.762,1.762V213.601z"/>
<line fill="none" stroke="#000000" stroke-width="0.7484" stroke-linecap="round" stroke-linejoin="round" x1="130.009" y1="122.446" x2="130.009" y2="205.417"/>
<line fill="none" stroke="#000000" stroke-width="0.7484" stroke-linecap="round" stroke-linejoin="round" x1="29.944" y1="122.446" x2="29.944" y2="205.417"/>
<line fill="none" stroke="#000000" stroke-width="0.4678" stroke-linecap="round" stroke-linejoin="round" stroke-dasharray="33.6756,1.8708,0.9354,1.8708" x1="135.093" y1="122.12" x2="25.27" y2="122.136"/>
<line fill="none" stroke="#000000" stroke-width="0.4678" stroke-linecap="round" stroke-linejoin="round" x1="155.759" y1="202.933" x2="125.228" y2="202.933"/>
<line fill="none" stroke="#000000" stroke-width="0.4678" stroke-linecap="round" stroke-linejoin="round" x1="33.894" y1="215.362" x2="4.163" y2="215.362"/>
<line fill="none" stroke="#000000" stroke-width="0.4678" stroke-linecap="round" stroke-linejoin="round" x1="153.12" y1="131.245" x2="153.12" y2="199.823"/>
<line fill="none" stroke="#000000" stroke-width="0.4678" stroke-linecap="round" stroke-linejoin="round" x1="6.487" y1="131.458" x2="6.487" y2="211.944"/>
<path fill="none" stroke="#000000" stroke-width="0.7484" stroke-linecap="round" stroke-linejoin="round" d="M36.78,30.669
	c0-0.972,0.79-1.762,1.762-1.762h82.867c0.973,0,1.762,0.79,1.762,1.762v8.908c0,0.973-0.789,1.762-1.762,1.762H38.542
	c-0.972,0-1.762-0.789-1.762-1.762V30.669z"/>
<g>
	
		<rect x="29.944" y="205.417" fill="#CAD4ED" stroke="#000000" stroke-width="0.7484" stroke-linecap="round" stroke-linejoin="round" width="6.836" height="7.461"/>
	
		<rect x="123.171" y="205.417" fill="#CAD4ED" stroke="#000000" stroke-width="0.7484" stroke-linecap="round" stroke-linejoin="round" width="6.838" height="7.461"/>
	
		<rect x="29.944" y="31.394" fill="#CAD4ED" stroke="#000000" stroke-width="0.7484" stroke-linecap="round" stroke-linejoin="round" width="6.836" height="7.459"/>
	
		<rect x="123.171" y="31.394" fill="#CAD4ED" stroke="#000000" stroke-width="0.7484" stroke-linecap="round" stroke-linejoin="round" width="6.838" height="7.459"/>
</g>
<line fill="none" stroke="#000000" stroke-width="0.7484" stroke-linecap="round" stroke-linejoin="round" x1="130.009" y1="121.825" x2="130.009" y2="38.853"/>
<line fill="none" stroke="#000000" stroke-width="0.7484" stroke-linecap="round" stroke-linejoin="round" x1="29.944" y1="121.825" x2="29.944" y2="38.853"/>
<line fill="none" stroke="#000000" stroke-width="0.4678" stroke-linecap="round" stroke-linejoin="round" x1="155.759" y1="41.339" x2="126.228" y2="41.339"/>
<line fill="none" stroke="#000000" stroke-width="0.4678" stroke-linecap="round" stroke-linejoin="round" x1="34.56" y1="28.907" x2="4.163" y2="28.907"/>
<line fill="none" stroke="#000000" stroke-width="0.4678" stroke-linecap="round" stroke-linejoin="round" x1="153.12" y1="113.891" x2="153.12" y2="44.446"/>
<line fill="none" stroke="#000000" stroke-width="0.4678" stroke-linecap="round" stroke-linejoin="round" x1="6.487" y1="113.891" x2="6.487" y2="32.327"/>
<line fill="none" stroke="#000000" stroke-width="0.4678" stroke-linecap="round" stroke-linejoin="round" x1="130.009" y1="3.122" x2="130.009" y2="28.622"/>
<line fill="none" stroke="#000000" stroke-width="0.4678" stroke-linecap="round" stroke-linejoin="round" x1="86.673" y1="5.761" x2="126.901" y2="5.761"/>
<line fill="none" stroke="#000000" stroke-width="0.4678" stroke-linecap="round" stroke-linejoin="round" x1="29.944" y1="3.122" x2="29.944" y2="26.288"/>
<line fill="none" stroke="#000000" stroke-width="0.4678" stroke-linecap="round" stroke-linejoin="round" x1="72.899" y1="5.761" x2="33.052" y2="5.761"/>
<g>
	<path d="M147.848,125.895v-8.59h5.795v1.014h-4.658v2.66h4.031v1.014h-4.031v3.902H147.848z"/>
	<path d="M155.648,128.895l-1.429-4.667h0.817l0.742,2.694l0.277,1.002c0.012-0.05,0.092-0.371,0.242-0.963l0.742-2.733h0.812
		l0.699,2.707l0.232,0.892l0.269-0.9l0.8-2.698h0.77l-1.459,4.667h-0.822L157.6,126.1l-0.181-0.795l-0.944,3.59H155.648z"/>
</g>
<g>
	<path d="M0.949,125.895v-8.59H7.16v1.014H2.086v2.631h4.752v1.008H2.086v2.924h5.273v1.014H0.949z"/>
	<path d="M9.458,128.895l-1.428-4.667h0.817l0.743,2.694l0.277,1.002c0.012-0.05,0.092-0.371,0.242-0.963l0.743-2.733h0.813
		l0.699,2.707l0.233,0.892l0.268-0.9l0.8-2.698h0.769l-1.459,4.667h-0.822L11.41,126.1l-0.18-0.795l-0.945,3.59H9.458z"/>
</g>
<g>
	<path d="M82.334,1.708h1.137v4.963c0,0.863-0.098,1.549-0.293,2.057S82.63,9.648,82.12,9.967s-1.179,0.478-2.007,0.478
		c-0.805,0-1.463-0.139-1.975-0.416s-0.877-0.679-1.096-1.204s-0.328-1.243-0.328-2.153V1.708h1.137v4.957
		c0,0.746,0.069,1.296,0.208,1.649s0.377,0.626,0.715,0.817s0.751,0.287,1.239,0.287c0.836,0,1.432-0.189,1.787-0.568
		s0.533-1.107,0.533-2.186V1.708z"/>
</g>
<polygon points="38.437,6.893 30.018,5.72 38.437,4.549 "/>
<polygon points="121.53,6.893 129.948,5.72 121.53,4.549 "/>
<polygon points="154.296,194.481 153.122,202.899 151.952,194.481 "/>
<polygon points="154.296,49.68 153.122,41.261 151.952,49.68 "/>
<polygon points="7.636,206.903 6.462,215.321 5.292,206.903 "/>
<polygon points="7.636,37.354 6.462,28.936 5.292,37.354 "/>
</svg>
