<?xml version="1.0" encoding="utf-8"?>
<!-- Generator: Adobe Illustrator 15.1.0, SVG Export Plug-In . SVG Version: 6.00 Build 0)  -->
<!DOCTYPE svg PUBLIC "-//W3C//DTD SVG 1.1//EN" "http://www.w3.org/Graphics/SVG/1.1/DTD/svg11.dtd">
<svg version="1.1" id="Lager_1" xmlns="http://www.w3.org/2000/svg" xmlns:xlink="http://www.w3.org/1999/xlink" x="0px" y="0px"
	 width="139.593px" height="217.342px" viewBox="0 0 139.593 217.342" enable-background="new 0 0 139.593 217.342"
	 xml:space="preserve">
<path fill="#CAD4ED" stroke="#000000" stroke-width="0.7482" stroke-linecap="round" stroke-linejoin="round" d="M87.899,28.993
	H50.458c-0.994,0-1.941,0.392-2.646,1.096c-0.703,0.702-1.096,1.651-1.096,2.645v7.204c0,0.399,0.156,0.778,0.438,1.059
	c0.281,0.281,0.66,0.438,1.059,0.438h10.729c2.548-3.028,6.284-4.766,10.241-4.761s7.691,1.75,10.232,4.784l-0.02-0.023h10.748
	c0.398,0,0.777-0.157,1.059-0.438c0.281-0.28,0.438-0.659,0.438-1.059v-7.204c0-0.993-0.393-1.942-1.096-2.645
	C89.845,29.384,88.896,28.993,87.899,28.993z"/>
<path fill="#CAD4ED" stroke="#000000" stroke-width="0.7482" stroke-linecap="round" stroke-linejoin="round" d="M87.896,71.091
	H50.453c-0.994,0-1.941-0.393-2.646-1.096c-0.703-0.702-1.096-1.651-1.096-2.646v-7.576c0-0.396,0.156-0.776,0.438-1.058
	c0.28-0.281,0.66-0.438,1.059-0.438H58.72c2.549,3.027,5.61,5.043,10.46,5.043c4.556,0,7.954-2.033,10.495-5.067l-0.02,0.024h10.486
	c0.396,0,0.775,0.156,1.059,0.438c0.279,0.281,0.438,0.661,0.438,1.058v7.576c0,0.994-0.395,1.943-1.098,2.646
	C89.839,70.699,88.89,71.091,87.896,71.091z"/>
<line fill="none" stroke="#000000" stroke-width="0.4678" stroke-linecap="round" stroke-linejoin="round" stroke-miterlimit="1" stroke-dasharray="25.2568,1.871,0.9354,1.871" x1="42.265" y1="122.589" x2="95.763" y2="122.589"/>
<line fill="none" stroke="#000000" stroke-width="0.7482" stroke-linecap="round" stroke-linejoin="round" stroke-miterlimit="1" x1="46.717" y1="40.032" x2="46.717" y2="59.627"/>
<line fill="none" stroke="#000000" stroke-width="0.7482" stroke-linecap="round" stroke-linejoin="round" stroke-miterlimit="1" x1="46.717" y1="67.344" x2="46.717" y2="122.589"/>
<line fill="none" stroke="#000000" stroke-width="0.7482" stroke-linecap="round" stroke-linejoin="round" stroke-miterlimit="1" x1="91.642" y1="40.032" x2="91.642" y2="59.627"/>
<line fill="none" stroke="#000000" stroke-width="0.7482" stroke-linecap="round" stroke-linejoin="round" stroke-miterlimit="1" x1="91.614" y1="67.344" x2="91.614" y2="122.589"/>
<polyline fill="#CAD4ED" stroke="#000000" stroke-width="0.5614" stroke-linecap="round" stroke-linejoin="round" points="
	80.872,56.413 80.747,56.628 80.872,56.413 81.481,55.191 81.958,53.914 82.298,52.592 82.497,51.242 82.558,49.88 82.472,48.517 
	82.247,47.171 81.88,45.857 81.38,44.588 80.747,43.378 82.833,43.38 83.427,44.942 83.856,46.558 84.114,48.209 84.196,49.88 
	84.106,51.551 83.841,53.201 83.403,54.816 82.802,56.375 82.72,56.552 82.685,56.628 80.747,56.628 "/>
<polyline fill="#CAD4ED" stroke="#000000" stroke-width="0.5614" stroke-linecap="round" stroke-linejoin="round" points="
	57.513,56.495 56.898,55.267 56.413,53.983 56.065,52.653 55.859,51.295 55.796,49.922 55.877,48.551 56.1,47.196 56.464,45.87 
	56.965,44.59 57.592,43.38 55.506,43.38 55.428,43.561 54.853,45.13 54.442,46.751 54.206,48.408 54.144,50.079 54.256,51.747 
	54.541,53.393 54.999,55.002 55.621,56.554 55.656,56.628 57.592,56.628 "/>
<circle fill="#FFFFFF" stroke="#000000" stroke-width="0.7482" stroke-linecap="round" stroke-linejoin="round" cx="69.198" cy="50.04" r="13.326"/>
<path fill="#CAD4ED" stroke="#000000" stroke-width="0.7482" stroke-linecap="round" stroke-linejoin="round" d="M87.899,216.126
	H50.458c-0.994,0-1.941-0.396-2.646-1.098c-0.703-0.705-1.096-1.652-1.096-2.646v-7.203c0-0.4,0.156-0.775,0.438-1.059
	c0.281-0.283,0.66-0.439,1.059-0.439h10.729c2.548,3.029,6.284,4.766,10.241,4.76c3.957-0.004,7.691-1.75,10.232-4.783l-0.02,0.023
	h10.748c0.398,0,0.777,0.156,1.059,0.439s0.438,0.658,0.438,1.059v7.203c0,0.994-0.393,1.941-1.096,2.646
	C89.845,215.729,88.896,216.126,87.899,216.126z"/>
<path fill="#CAD4ED" stroke="#000000" stroke-width="0.7482" stroke-linecap="round" stroke-linejoin="round" d="M87.896,174.022
	H50.453c-0.994,0-1.941,0.395-2.646,1.096c-0.703,0.703-1.096,1.652-1.096,2.648v7.574c0,0.398,0.156,0.777,0.438,1.057
	c0.28,0.281,0.66,0.439,1.059,0.439H58.72c2.549-3.029,5.61-5.043,10.46-5.043c4.556,0,7.954,2.033,10.495,5.066l-0.02-0.023h10.486
	c0.396,0,0.775-0.158,1.059-0.439c0.279-0.279,0.438-0.658,0.438-1.057v-7.574c0-0.996-0.395-1.945-1.098-2.648
	C89.839,174.417,88.89,174.022,87.896,174.022z"/>
<line fill="none" stroke="#000000" stroke-width="0.7482" stroke-linecap="round" stroke-linejoin="round" stroke-miterlimit="1" x1="46.717" y1="205.085" x2="46.717" y2="185.485"/>
<line fill="none" stroke="#000000" stroke-width="0.7482" stroke-linecap="round" stroke-linejoin="round" stroke-miterlimit="1" x1="46.717" y1="177.771" x2="46.717" y2="122.526"/>
<line fill="none" stroke="#000000" stroke-width="0.7482" stroke-linecap="round" stroke-linejoin="round" stroke-miterlimit="1" x1="91.642" y1="205.085" x2="91.642" y2="185.485"/>
<line fill="none" stroke="#000000" stroke-width="0.7482" stroke-linecap="round" stroke-linejoin="round" stroke-miterlimit="1" x1="91.62" y1="177.771" x2="91.62" y2="122.526"/>
<polyline fill="#CAD4ED" stroke="#000000" stroke-width="0.5614" stroke-linecap="round" stroke-linejoin="round" points="
	80.872,188.704 80.747,188.487 80.872,188.704 81.481,189.925 81.958,191.202 82.298,192.521 82.497,193.874 82.558,195.235 
	82.472,196.597 82.247,197.944 81.88,199.257 81.38,200.528 80.747,201.737 82.833,201.735 83.427,200.177 83.856,198.558 
	84.114,196.903 84.196,195.235 84.106,193.567 83.841,191.913 83.403,190.3 82.802,188.741 82.72,188.562 82.685,188.487 
	80.747,188.487 "/>
<polyline fill="#CAD4ED" stroke="#000000" stroke-width="0.5614" stroke-linecap="round" stroke-linejoin="round" points="
	57.513,188.622 56.898,189.847 56.413,191.134 56.065,192.462 55.859,193.821 55.796,195.196 55.877,196.563 56.1,197.923 
	56.464,199.247 56.965,200.524 57.592,201.735 55.506,201.735 55.428,201.554 54.853,199.985 54.442,198.364 54.206,196.708 
	54.144,195.036 54.256,193.368 54.541,191.72 54.999,190.114 55.621,188.562 55.656,188.487 57.592,188.487 "/>
<circle fill="#FFFFFF" stroke="#000000" stroke-width="0.7482" stroke-linecap="round" stroke-linejoin="round" cx="69.198" cy="195.074" r="13.327"/>
<g>
	<g>
		<g>
			<path d="M36.141,65.906v-6.223h0.949v0.943c0.242-0.441,0.466-0.732,0.671-0.873s0.431-0.211,0.677-0.211
				c0.355,0,0.717,0.113,1.084,0.34l-0.363,0.979c-0.258-0.152-0.516-0.229-0.773-0.229c-0.23,0-0.438,0.069-0.621,0.208
				s-0.314,0.331-0.393,0.577c-0.117,0.375-0.176,0.785-0.176,1.23v3.258H36.141z"/>
			<path d="M42.71,68.381h-0.791v-5.041c-0.19,0.182-0.44,0.363-0.75,0.545s-0.586,0.318-0.833,0.409V63.53
				c0.442-0.208,0.829-0.46,1.16-0.756s0.565-0.583,0.703-0.861h0.51V68.381z"/>
		</g>
	</g>
	<g>
		<g>
			<path d="M80.014,23.812v-6.223h0.949v0.943c0.242-0.441,0.466-0.732,0.671-0.873s0.431-0.211,0.677-0.211
				c0.355,0,0.717,0.113,1.084,0.34l-0.363,0.979c-0.258-0.152-0.516-0.229-0.773-0.229c-0.23,0-0.438,0.069-0.621,0.208
				s-0.314,0.331-0.393,0.577c-0.117,0.375-0.176,0.785-0.176,1.23v3.258H80.014z"/>
			<path d="M87.762,25.526v0.76h-4.259c-0.006-0.19,0.024-0.374,0.093-0.549c0.107-0.29,0.281-0.576,0.521-0.857
				c0.238-0.281,0.583-0.606,1.034-0.976c0.7-0.574,1.174-1.029,1.42-1.364s0.369-0.653,0.369-0.952
				c0-0.313-0.112-0.578-0.336-0.793c-0.225-0.215-0.517-0.323-0.877-0.323c-0.381,0-0.686,0.114-0.914,0.343
				s-0.345,0.545-0.348,0.949l-0.812-0.083c0.056-0.606,0.265-1.068,0.629-1.387c0.362-0.317,0.851-0.477,1.463-0.477
				c0.618,0,1.107,0.171,1.468,0.514s0.54,0.768,0.54,1.274c0,0.258-0.053,0.511-0.158,0.76s-0.28,0.511-0.524,0.787
				c-0.245,0.275-0.651,0.653-1.22,1.134c-0.475,0.398-0.779,0.669-0.914,0.811s-0.246,0.285-0.334,0.428H87.762z"/>
		</g>
	</g>
	<g>
		<g>
			<path d="M49.078,79.535v-6.223h0.949v0.943c0.242-0.441,0.466-0.732,0.671-0.873s0.431-0.211,0.677-0.211
				c0.355,0,0.717,0.113,1.084,0.34l-0.363,0.979c-0.258-0.152-0.516-0.229-0.773-0.229c-0.23,0-0.438,0.069-0.621,0.208
				s-0.314,0.331-0.393,0.577c-0.117,0.375-0.176,0.785-0.176,1.23v3.258H49.078z"/>
			<path d="M56.826,81.25v0.76h-4.258c-0.006-0.19,0.025-0.374,0.092-0.549c0.108-0.29,0.282-0.576,0.521-0.857
				c0.238-0.281,0.583-0.606,1.035-0.976c0.7-0.574,1.173-1.029,1.419-1.364s0.369-0.653,0.369-0.952
				c0-0.313-0.112-0.578-0.336-0.793c-0.225-0.215-0.517-0.323-0.877-0.323c-0.381,0-0.686,0.114-0.914,0.343
				s-0.344,0.545-0.347,0.949l-0.813-0.083c0.056-0.606,0.265-1.068,0.628-1.387c0.363-0.317,0.851-0.477,1.463-0.477
				c0.618,0,1.107,0.171,1.468,0.514s0.541,0.768,0.541,1.274c0,0.258-0.053,0.511-0.158,0.76s-0.281,0.511-0.525,0.787
				c-0.245,0.275-0.651,0.653-1.22,1.134c-0.475,0.398-0.779,0.669-0.914,0.811s-0.246,0.285-0.334,0.428H56.826z"/>
		</g>
	</g>
	<g>
		<g>
			<path d="M93.843,37.367v-6.223h0.949v0.943c0.242-0.441,0.466-0.732,0.671-0.873s0.431-0.211,0.677-0.211
				c0.355,0,0.717,0.113,1.084,0.34l-0.363,0.979c-0.258-0.152-0.516-0.229-0.773-0.229c-0.23,0-0.438,0.069-0.621,0.208
				s-0.314,0.331-0.393,0.577c-0.117,0.375-0.176,0.785-0.176,1.23v3.258H93.843z"/>
			<path d="M100.413,39.842h-0.791v-5.041c-0.191,0.182-0.44,0.363-0.75,0.545c-0.309,0.182-0.586,0.318-0.832,0.409v-0.765
				c0.441-0.208,0.828-0.46,1.16-0.756c0.33-0.296,0.564-0.583,0.703-0.861h0.51V39.842z"/>
		</g>
	</g>
	<g>
		
			<line fill="none" stroke="#000000" stroke-width="0.4678" stroke-linecap="round" stroke-linejoin="round" stroke-miterlimit="1" x1="23.222" y1="130.364" x2="23.222" y2="196.876"/>
		
			<line fill="none" stroke="#000000" stroke-width="0.4678" stroke-linecap="round" stroke-linejoin="round" stroke-miterlimit="1" x1="23.222" y1="46.731" x2="23.222" y2="115.675"/>
		<polygon points="22.051,49.601 23.222,41.182 24.394,49.601 		"/>
		<polygon points="24.394,194.854 23.222,203.272 22.051,194.854 		"/>
		<g>
			<g>
				<path d="M17.81,126.928v-8.59h2.959c0.668,0,1.178,0.041,1.529,0.123c0.492,0.113,0.912,0.318,1.26,0.615
					c0.453,0.383,0.792,0.872,1.017,1.468s0.337,1.276,0.337,2.042c0,0.652-0.076,1.23-0.229,1.734s-0.348,0.921-0.586,1.251
					s-0.499,0.59-0.782,0.779s-0.625,0.333-1.025,0.431s-0.86,0.146-1.38,0.146H17.81z M18.946,125.914h1.834
					c0.566,0,1.011-0.053,1.333-0.158s0.579-0.254,0.771-0.445c0.27-0.27,0.479-0.632,0.63-1.087s0.226-1.007,0.226-1.655
					c0-0.898-0.147-1.589-0.442-2.071s-0.653-0.806-1.075-0.97c-0.305-0.117-0.795-0.176-1.471-0.176h-1.805V125.914z"/>
				<path d="M28.903,129.402h-0.791v-5.041c-0.19,0.183-0.44,0.364-0.75,0.545c-0.309,0.183-0.586,0.318-0.833,0.409v-0.765
					c0.442-0.208,0.829-0.46,1.16-0.756s0.565-0.583,0.703-0.861h0.51V129.402z"/>
			</g>
		</g>
	</g>
	
		<line fill="none" stroke="#000000" stroke-width="0.4678" stroke-linecap="round" stroke-linejoin="round" stroke-miterlimit="1" x1="45.005" y1="41.182" x2="20.637" y2="41.182"/>
	
		<line fill="none" stroke="#000000" stroke-width="0.4678" stroke-linecap="round" stroke-linejoin="round" stroke-miterlimit="1" x1="44.694" y1="203.272" x2="20.637" y2="203.272"/>
	<g>
		
			<line fill="none" stroke="#000000" stroke-width="0.4678" stroke-linecap="round" stroke-linejoin="round" stroke-miterlimit="1" x1="4.521" y1="129.917" x2="4.521" y2="210.368"/>
		
			<line fill="none" stroke="#000000" stroke-width="0.4678" stroke-linecap="round" stroke-linejoin="round" stroke-miterlimit="1" x1="4.521" y1="35.739" x2="4.521" y2="115.542"/>
		<polygon points="3.35,37.679 4.521,29.26 5.694,37.679 		"/>
		<polygon points="5.694,207.288 4.521,215.706 3.35,207.288 		"/>
		<g>
			<g>
				<path d="M0.926,126.928v-8.59h2.959c0.668,0,1.178,0.041,1.529,0.123c0.492,0.113,0.912,0.318,1.26,0.615
					c0.453,0.383,0.792,0.872,1.017,1.468s0.337,1.276,0.337,2.042c0,0.652-0.076,1.23-0.229,1.734s-0.348,0.921-0.586,1.251
					s-0.499,0.59-0.782,0.779s-0.625,0.333-1.025,0.431s-0.86,0.146-1.38,0.146H0.926z M2.062,125.914h1.834
					c0.566,0,1.011-0.053,1.333-0.158s0.579-0.254,0.771-0.445c0.27-0.27,0.479-0.632,0.63-1.087s0.226-1.007,0.226-1.655
					c0-0.898-0.147-1.589-0.442-2.071s-0.653-0.806-1.075-0.97c-0.305-0.117-0.795-0.176-1.471-0.176H2.062V125.914z"/>
			</g>
		</g>
	</g>
	
		<line fill="none" stroke="#000000" stroke-width="0.4678" stroke-linecap="round" stroke-linejoin="round" stroke-miterlimit="1" x1="46.085" y1="29.042" x2="1.461" y2="29.042"/>
	
		<line fill="none" stroke="#000000" stroke-width="0.4678" stroke-linecap="round" stroke-linejoin="round" stroke-miterlimit="1" x1="45.318" y1="215.657" x2="1.461" y2="215.657"/>
	<g>
		
			<line fill="none" stroke="#000000" stroke-width="0.4678" stroke-linecap="round" stroke-linejoin="round" stroke-miterlimit="1" x1="75.571" y1="5.875" x2="86.392" y2="5.875"/>
		
			<line fill="none" stroke="#000000" stroke-width="0.4678" stroke-linecap="round" stroke-linejoin="round" stroke-miterlimit="1" x1="52.638" y1="5.875" x2="64.188" y2="5.875"/>
		<polygon points="55.059,7.046 46.64,5.875 55.059,4.704 		"/>
		<polygon points="83.321,7.046 91.739,5.875 83.321,4.704 		"/>
		<g>
			<g>
				<path d="M66.913,10.298v-8.59h3.223c0.656,0,1.183,0.087,1.579,0.261s0.707,0.441,0.932,0.803s0.337,0.739,0.337,1.134
					c0,0.367-0.1,0.713-0.299,1.037s-0.5,0.586-0.902,0.785c0.52,0.152,0.919,0.412,1.198,0.779s0.419,0.801,0.419,1.301
					c0,0.402-0.085,0.776-0.255,1.122s-0.38,0.612-0.63,0.8s-0.563,0.329-0.94,0.425s-0.839,0.144-1.386,0.144H66.913z M68.05,5.317
					h1.857c0.504,0,0.865-0.033,1.084-0.1c0.289-0.086,0.507-0.229,0.653-0.428s0.22-0.449,0.22-0.75
					c0-0.285-0.068-0.536-0.205-0.753s-0.332-0.365-0.586-0.445s-0.689-0.12-1.307-0.12H68.05V5.317z M68.05,9.284h2.139
					c0.367,0,0.625-0.014,0.773-0.041c0.262-0.047,0.48-0.125,0.656-0.234s0.32-0.269,0.434-0.478s0.17-0.45,0.17-0.724
					c0-0.32-0.082-0.599-0.246-0.835s-0.392-0.402-0.683-0.498s-0.71-0.144-1.257-0.144H68.05V9.284z"/>
			</g>
		</g>
	</g>
	
		<line fill="none" stroke="#000000" stroke-width="0.4678" stroke-linecap="round" stroke-linejoin="round" stroke-miterlimit="1" x1="46.64" y1="27.797" x2="46.64" y2="3.419"/>
	
		<line fill="none" stroke="#000000" stroke-width="0.4678" stroke-linecap="round" stroke-linejoin="round" stroke-miterlimit="1" x1="91.739" y1="28.51" x2="91.739" y2="3.419"/>
	<g>
		<g>
			
				<line fill="none" stroke="#000000" stroke-width="0.4678" stroke-linecap="round" stroke-linejoin="round" stroke-miterlimit="1" x1="115.071" y1="129.63" x2="115.071" y2="169.146"/>
			
				<line fill="none" stroke="#000000" stroke-width="0.4678" stroke-linecap="round" stroke-linejoin="round" stroke-miterlimit="1" x1="115.071" y1="75.96" x2="115.071" y2="116.038"/>
			<polygon points="113.899,79.187 115.071,70.768 116.241,79.187 			"/>
			<polygon points="116.241,166.026 115.071,174.444 113.899,166.026 			"/>
			<g>
				<g>
					<path d="M116.267,126.928v-0.785c-0.395,0.617-0.975,0.926-1.74,0.926c-0.496,0-0.952-0.137-1.368-0.41
						s-0.738-0.655-0.967-1.146s-0.343-1.054-0.343-1.69c0-0.621,0.104-1.185,0.311-1.69s0.518-0.894,0.932-1.163
						s0.877-0.404,1.389-0.404c0.375,0,0.709,0.079,1.002,0.237s0.531,0.364,0.715,0.618v-3.082h1.049v8.59H116.267z
						 M112.933,123.822c0,0.797,0.168,1.393,0.504,1.787s0.732,0.592,1.189,0.592c0.461,0,0.853-0.188,1.175-0.565
						s0.483-0.952,0.483-1.726c0-0.852-0.164-1.477-0.492-1.875s-0.732-0.598-1.213-0.598c-0.469,0-0.86,0.191-1.175,0.574
						S112.933,122.998,112.933,123.822z"/>
				</g>
			</g>
		</g>
		
			<line fill="none" stroke="#000000" stroke-width="0.4678" stroke-linecap="round" stroke-linejoin="round" stroke-miterlimit="1" x1="93.966" y1="70.768" x2="117.876" y2="70.768"/>
		
			<line fill="none" stroke="#000000" stroke-width="0.4678" stroke-linecap="round" stroke-linejoin="round" stroke-miterlimit="1" x1="93.966" y1="174.444" x2="117.876" y2="174.444"/>
	</g>
	<g>
		<g>
			
				<line fill="none" stroke="#000000" stroke-width="0.4678" stroke-linecap="round" stroke-linejoin="round" stroke-miterlimit="1" x1="133.771" y1="131.026" x2="133.771" y2="179.888"/>
			
				<line fill="none" stroke="#000000" stroke-width="0.4678" stroke-linecap="round" stroke-linejoin="round" stroke-miterlimit="1" x1="133.771" y1="64.469" x2="133.771" y2="116.022"/>
			<polygon points="132.601,66.472 133.771,58.053 134.942,66.472 			"/>
			<polygon points="134.942,178.228 133.771,186.646 132.601,178.228 			"/>
			<g>
				<g>
					<path d="M132.741,126.927v-0.785c-0.395,0.617-0.975,0.926-1.74,0.926c-0.496,0-0.952-0.137-1.368-0.41
						s-0.738-0.655-0.967-1.146s-0.343-1.054-0.343-1.69c0-0.621,0.104-1.185,0.311-1.69s0.518-0.894,0.932-1.163
						s0.877-0.404,1.389-0.404c0.375,0,0.709,0.079,1.002,0.237s0.531,0.364,0.715,0.618v-3.082h1.049v8.59H132.741z
						 M129.407,123.821c0,0.797,0.168,1.393,0.504,1.787s0.732,0.592,1.189,0.592c0.461,0,0.853-0.188,1.175-0.565
						s0.483-0.952,0.483-1.726c0-0.852-0.164-1.477-0.492-1.875s-0.732-0.598-1.213-0.598c-0.469,0-0.86,0.191-1.175,0.574
						S129.407,122.997,129.407,123.821z"/>
					<path d="M137.94,129.401h-0.791v-5.041c-0.191,0.183-0.44,0.364-0.75,0.545c-0.309,0.183-0.586,0.318-0.832,0.409v-0.765
						c0.441-0.208,0.828-0.46,1.16-0.756c0.33-0.296,0.564-0.583,0.703-0.861h0.51V129.401z"/>
				</g>
			</g>
		</g>
		
			<line fill="none" stroke="#000000" stroke-width="0.4678" stroke-linecap="round" stroke-linejoin="round" stroke-miterlimit="1" x1="93.966" y1="58.053" x2="136.577" y2="58.053"/>
		
			<line fill="none" stroke="#000000" stroke-width="0.4678" stroke-linecap="round" stroke-linejoin="round" stroke-miterlimit="1" x1="93.966" y1="186.646" x2="136.577" y2="186.646"/>
	</g>
</g>
</svg>
