<?xml version="1.0" encoding="utf-8"?>
<!-- Generator: Adobe Illustrator 15.1.0, SVG Export Plug-In . SVG Version: 6.00 Build 0)  -->
<!DOCTYPE svg PUBLIC "-//W3C//DTD SVG 1.1//EN" "http://www.w3.org/Graphics/SVG/1.1/DTD/svg11.dtd">
<svg version="1.1" id="Lager_1" xmlns="http://www.w3.org/2000/svg" xmlns:xlink="http://www.w3.org/1999/xlink" x="0px" y="0px"
	 width="201.5px" height="223.5px" viewBox="0 0 201.5 223.5" enable-background="new 0 0 201.5 223.5" xml:space="preserve">
<g>
	<path fill="#CAD4ED" stroke="#000000" stroke-width="0.7482" stroke-linecap="round" stroke-linejoin="round" d="M57.147,64.798
		h34.519c2.65,2.854,6.473,4.66,10.678,4.66c4.264,0,8.021-1.73,10.678-4.66h36.941c0.947,0,1.715,0.766,1.715,1.713l0.025,9.129
		c0,1.775-1.439,3.213-3.213,3.213H33.495c-1.774,0-3.211-1.438-3.211-3.213l0.025-9.129c0-0.947,0.767-1.713,1.715-1.713h7.164"/>
	<polyline fill="#FFFFFF" stroke="#000000" stroke-width="0.5614" stroke-linecap="round" stroke-linejoin="round" points="
		57.467,64.396 56.985,64.673 58.902,65.781 56.985,66.888 58.902,67.994 56.985,69.101 58.902,70.208 56.985,71.316 58.902,72.421 
		56.985,73.529 58.902,74.634 56.985,75.744 58.902,76.849 56.985,77.957 58.5,78.83 40.516,78.83 39.001,77.957 40.919,76.849 
		39.001,75.744 40.919,74.634 39.001,73.529 40.919,72.421 39.001,71.316 40.919,70.208 39.001,69.101 40.919,67.994 39.001,66.888 
		40.919,65.781 39.179,64.777 	"/>
	<polygon fill="#FFFFFF" stroke="#000000" stroke-width="0.5614" stroke-linecap="round" stroke-linejoin="round" points="
		54.372,78.806 57.256,75.74 56.991,75.738 58.902,74.634 56.991,73.531 58.902,72.429 56.991,71.326 58.902,70.222 56.991,69.119 
		58.902,68.015 56.991,66.914 58.902,65.81 56.991,64.707 57.472,64.429 57.496,64.425 55.173,63.072 42.781,63.072 39.539,64.964 
		39.241,64.808 40.975,65.81 39.064,66.914 40.975,68.015 39.064,69.119 40.975,70.222 39.064,71.326 40.975,72.429 39.064,73.531 
		40.975,74.634 40.079,75.304 43.582,78.806 	"/>
	
		<circle fill="#FFFFFF" stroke="#000000" stroke-width="0.7482" stroke-linecap="round" stroke-linejoin="round" cx="102.344" cy="54.941" r="14.518"/>
	<path fill="#CAD4ED" stroke="#000000" stroke-width="0.5614" stroke-linecap="round" stroke-linejoin="round" d="M89.566,61.808
		l-4.423-0.01V48.882l3.994,0.004c-0.846,1.842-1.312,3.895-1.312,6.055C87.826,57.447,88.448,59.753,89.566,61.808z"/>
	
		<line fill="none" stroke="#000000" stroke-width="0.5614" stroke-linecap="round" stroke-linejoin="round" x1="85.144" y1="61.798" x2="85.144" y2="64.744"/>
	
		<line fill="none" stroke="#000000" stroke-width="0.7482" stroke-linecap="round" stroke-linejoin="round" x1="151.691" y1="75.019" x2="151.691" y2="172.191"/>
	<path d="M78.867,46.525l1.745-3.238c0,0,0.464-0.715,1.515-0.715c1.396,0,1.376,7.811,1.376,7.811l-4.678,4.391v8.709H77.52V54.14
		l4.82-4.496c0,0-0.021-5.727-0.443-5.727c-0.59,0-1.894,3.197-1.894,3.197L78.867,46.525z"/>
	<path d="M125.812,46.525l-1.748-3.238c0,0-0.461-0.715-1.512-0.715c-1.398,0-1.379,7.811-1.379,7.811l4.68,4.391v8.709h1.307V54.14
		l-4.822-4.496c0,0,0.023-5.727,0.443-5.727c0.59,0,1.893,3.197,1.893,3.197L125.812,46.525z"/>
	
		<line fill="none" stroke="#000000" stroke-width="0.7482" stroke-linecap="round" stroke-linejoin="round" x1="30.294" y1="75.019" x2="30.294" y2="172.191"/>
	<polyline fill="none" stroke="#000000" stroke-width="0.5614" stroke-linecap="round" stroke-linejoin="round" points="
		39.477,64.935 42.729,63.035 55.161,63.035 57.491,64.394 	"/>
	
		<line fill="none" stroke="#000000" stroke-width="0.5614" stroke-linecap="round" stroke-linejoin="round" stroke-dasharray="2.31,1.65" x1="43.152" y1="63.05" x2="43.163" y2="70.742"/>
	
		<line fill="none" stroke="#000000" stroke-width="0.5614" stroke-linecap="round" stroke-linejoin="round" stroke-dasharray="2.31,1.65" x1="54.737" y1="63.05" x2="54.727" y2="70.742"/>
	
		<line fill="none" stroke="#000000" stroke-width="0.4678" stroke-linecap="round" stroke-linejoin="round" stroke-miterlimit="1" stroke-dasharray="8.4188,1.871,0.9354,1.871" x1="48.946" y1="59.865" x2="48.946" y2="81.125"/>
	
		<line fill="none" stroke="#000000" stroke-width="0.5614" stroke-linecap="round" stroke-linejoin="round" stroke-dasharray="2.31,1.65" x1="46.096" y1="63.05" x2="46.105" y2="70.742"/>
	
		<line fill="none" stroke="#000000" stroke-width="0.5614" stroke-linecap="round" stroke-linejoin="round" stroke-dasharray="2.31,1.65" x1="51.81" y1="63.05" x2="51.819" y2="70.742"/>
	
		<line fill="none" stroke="#000000" stroke-width="0.5614" stroke-linecap="round" stroke-linejoin="round" stroke-dasharray="1.848,0.99" x1="44.028" y1="71.509" x2="48.946" y2="74.347"/>
	
		<line fill="none" stroke="#000000" stroke-width="0.5614" stroke-linecap="round" stroke-linejoin="round" stroke-dasharray="1.848,0.99" x1="48.946" y1="74.347" x2="53.904" y2="71.484"/>
	
		<line fill="none" stroke="#000000" stroke-width="0.5614" stroke-linecap="round" stroke-linejoin="round" x1="57.258" y1="75.919" x2="54.357" y2="78.82"/>
	
		<line fill="none" stroke="#000000" stroke-width="0.5614" stroke-linecap="round" stroke-linejoin="round" x1="40.02" y1="75.306" x2="43.532" y2="78.82"/>
	
		<line fill="none" stroke="#000000" stroke-width="0.5614" stroke-linecap="round" stroke-linejoin="round" x1="39.923" y1="75.259" x2="57.88" y2="75.259"/>
	
		<polyline fill="none" stroke="#000000" stroke-width="0.5614" stroke-linecap="round" stroke-linejoin="round" stroke-dasharray="2.31,0.99" points="
		54.393,78.82 48.953,75.285 43.497,78.82 	"/>
	<path fill="none" stroke="#000000" stroke-width="0.5614" stroke-linecap="round" stroke-linejoin="round" d="M54.727,70.742
		c-0.268,0.551-0.832,0.93-1.486,0.93c-0.652,0-1.247-0.377-1.516-0.926c-0.748,0.59-1.752,0.943-2.778,0.943
		c-1.028,0-2.032-0.354-2.779-0.943c-0.27,0.549-0.864,0.926-1.517,0.926c-0.654,0-1.218-0.379-1.487-0.93"/>
	
		<line fill="none" stroke="#000000" stroke-width="0.5614" stroke-linecap="round" stroke-linejoin="round" x1="39.992" y1="65.187" x2="57.926" y2="65.187"/>
	<path fill="#CAD4ED" stroke="#000000" stroke-width="0.5614" stroke-linecap="round" stroke-linejoin="round" d="M72.504,58.232
		c0.558-1.52,0.788-2.152,1.887-2.646c0.429-0.193,1.636-0.764,2.685-1.363c0.804-0.457,1.46-1.07,1.618-1.219
		c0.865-0.814-0.392-1.252-0.658-0.91c0.197-0.254-3.089,1.67-3.596,1.264c-0.253-0.201,2.008-2.199,2.051-2.949l-3.939,4.361
		l-0.007,4.043"/>
	<path d="M75.02,44.064l0.008,5.662l-3.986,4.453l0.005,7.838c0.124,0.707-0.55,1.42-1.298,1.42h-3.369v1.344l3.369,0.029
		c1.543,0,2.793-1.252,2.793-2.793l0.01-7.248l3.887-4.387l-0.017-6.318H75.02z"/>
	<path fill="none" stroke="#000000" stroke-width="0.5614" stroke-linecap="round" stroke-linejoin="round" d="M72.256,58.777
		c0.556-1.52,1.036-2.697,2.135-3.191c0.429-0.193,1.636-0.764,2.685-1.363c0.804-0.457,1.46-1.07,1.618-1.219
		c0.865-0.814-0.392-1.252-0.658-0.91c0.197-0.254-3.089,1.67-3.596,1.264c-0.253-0.201,2.061-2.176,2.104-2.926
		c0.053-0.881,0-6.371,0-6.371l0.483-0.779h-1.695l-0.022,0.867"/>
	<path fill="#CAD4ED" stroke="#000000" stroke-width="0.5614" stroke-linecap="round" stroke-linejoin="round" d="M132.172,58.232
		c-0.559-1.52-0.789-2.152-1.885-2.646c-0.434-0.193-1.641-0.764-2.689-1.363c-0.801-0.457-1.459-1.07-1.619-1.219
		c-0.863-0.814,0.395-1.252,0.66-0.91c-0.193-0.254,3.09,1.67,3.594,1.264c0.256-0.201-2.004-2.199-2.051-2.949l3.941,4.361
		l0.006,4.043"/>
	<path d="M129.654,44.064l-0.008,5.662l3.99,4.453l-0.008,7.838c-0.123,0.707,0.551,1.42,1.299,1.42h3.369v1.344l-3.369,0.029
		c-1.541,0-2.791-1.252-2.791-2.793l-0.014-7.248l-3.885-4.387l0.016-6.318H129.654z"/>
	<path fill="none" stroke="#000000" stroke-width="0.5614" stroke-linecap="round" stroke-linejoin="round" d="M132.422,58.777
		c-0.559-1.52-1.039-2.697-2.135-3.191c-0.434-0.193-1.641-0.764-2.689-1.363c-0.801-0.457-1.459-1.07-1.619-1.219
		c-0.863-0.814,0.395-1.252,0.66-0.91c-0.193-0.254,3.09,1.67,3.594,1.264c0.256-0.201-2.059-2.176-2.102-2.926
		c-0.053-0.881,0-6.371,0-6.371l-0.484-0.779h1.697l0.021,0.867"/>
	<path fill="#CAD4ED" stroke="#000000" stroke-width="0.5614" stroke-linecap="round" stroke-linejoin="round" d="M83.293,50.591
		v2.098c0,0-1.48,0.562-1.48,2.582v2.867c0.168,1.348,0.665,0.977,1.393,2.398c1.029,2.006,0.612,2.633-0.889,4.207l-1.277-1.055
		c0,0,1.038-1.254,0.224-1.789c-0.378-0.248-0.694,0.08-2.438,0.08v-7.207L83.293,50.591z"/>
	<path fill="#CAD4ED" stroke="#000000" stroke-width="0.5614" stroke-linecap="round" stroke-linejoin="round" d="M121.387,50.591
		v2.098c0,0,1.479,0.562,1.479,2.582v2.867c-0.168,1.348-0.666,0.977-1.395,2.398c-1.025,2.006-0.607,2.633,0.893,4.207l1.275-1.055
		c0,0-1.037-1.254-0.225-1.789c0.379-0.248,0.697,0.08,2.439,0.08v-7.207L121.387,50.591z"/>
	
		<circle fill="#FFFFFF" stroke="#000000" stroke-width="0.7482" stroke-linecap="round" stroke-linejoin="round" cx="102.344" cy="195.604" r="14.521"/>
	<path fill="#CAD4ED" stroke="#000000" stroke-width="0.5614" stroke-linecap="round" stroke-linejoin="round" d="M89.566,188.734
		l-4.423,0.01v12.92l3.994-0.006c-0.846-1.842-1.312-3.893-1.312-6.055C87.826,193.098,88.448,190.791,89.566,188.734z"/>
	
		<line fill="none" stroke="#000000" stroke-width="0.5614" stroke-linecap="round" stroke-linejoin="round" x1="85.144" y1="188.744" x2="85.144" y2="185.801"/>
	
		<line fill="none" stroke="#000000" stroke-width="0.7482" stroke-linecap="round" stroke-linejoin="round" x1="151.691" y1="175.525" x2="151.691" y2="171.744"/>
	<path d="M78.867,204.018l1.745,3.24c0,0,0.464,0.717,1.515,0.717c1.396,0,1.376-7.811,1.376-7.811l-4.678-4.391v-8.709H77.52v9.342
		l4.82,4.494c0,0-0.021,5.727-0.443,5.727c-0.59,0-1.894-3.199-1.894-3.199L78.867,204.018z"/>
	<path d="M125.812,204.018l-1.748,3.24c0,0-0.461,0.717-1.512,0.717c-1.398,0-1.379-7.811-1.379-7.811l4.68-4.391v-8.709h1.307
		v9.342l-4.822,4.494c0,0,0.023,5.727,0.443,5.727c0.59,0,1.893-3.199,1.893-3.199L125.812,204.018z"/>
	
		<line fill="none" stroke="#000000" stroke-width="0.7482" stroke-linecap="round" stroke-linejoin="round" x1="30.294" y1="175.525" x2="30.294" y2="171.744"/>
	<path fill="#CAD4ED" stroke="#000000" stroke-width="0.5614" stroke-linecap="round" stroke-linejoin="round" d="M72.504,192.316
		c0.558,1.518,0.788,2.15,1.887,2.643c0.429,0.191,1.636,0.764,2.685,1.363c0.804,0.459,1.46,1.068,1.618,1.219
		c0.865,0.812-0.392,1.252-0.658,0.91c0.197,0.256-3.089-1.67-3.596-1.266c-0.253,0.205,2.008,2.199,2.051,2.955l-3.939-4.365
		l-0.007-4.043"/>
	<path d="M75.02,206.479l0.008-5.662l-3.986-4.449l0.005-7.842c0.124-0.701-0.55-1.418-1.298-1.418h-3.369v-1.342l3.369-0.031
		c1.543,0,2.793,1.25,2.793,2.791l0.01,7.25l3.887,4.389l-0.017,6.318L75.02,206.479z"/>
	<path fill="none" stroke="#000000" stroke-width="0.5614" stroke-linecap="round" stroke-linejoin="round" d="M72.256,191.768
		c0.556,1.521,1.036,2.699,2.135,3.191c0.429,0.191,1.636,0.764,2.685,1.363c0.804,0.459,1.46,1.068,1.618,1.219
		c0.865,0.812-0.392,1.252-0.658,0.91c0.197,0.256-3.089-1.67-3.596-1.266c-0.253,0.205,2.061,2.176,2.104,2.926
		c0.053,0.883,0,6.371,0,6.371l0.483,0.781h-1.695l-0.022-0.865"/>
	<path fill="#CAD4ED" stroke="#000000" stroke-width="0.5614" stroke-linecap="round" stroke-linejoin="round" d="M132.172,192.316
		c-0.559,1.518-0.789,2.15-1.885,2.643c-0.434,0.191-1.641,0.764-2.689,1.363c-0.801,0.459-1.459,1.068-1.619,1.219
		c-0.863,0.812,0.395,1.252,0.66,0.91c-0.193,0.256,3.09-1.67,3.594-1.266c0.256,0.205-2.004,2.199-2.051,2.955l3.941-4.365
		l0.006-4.043"/>
	<path d="M129.654,206.479l-0.008-5.662l3.99-4.449l-0.008-7.842c-0.123-0.701,0.551-1.418,1.299-1.418h3.369v-1.342l-3.369-0.031
		c-1.541,0-2.791,1.25-2.791,2.791l-0.014,7.25l-3.885,4.389l0.016,6.318L129.654,206.479z"/>
	<path fill="none" stroke="#000000" stroke-width="0.5614" stroke-linecap="round" stroke-linejoin="round" d="M132.422,191.768
		c-0.559,1.521-1.039,2.699-2.135,3.191c-0.434,0.191-1.641,0.764-2.689,1.363c-0.801,0.459-1.459,1.068-1.619,1.219
		c-0.863,0.812,0.395,1.252,0.66,0.91c-0.193,0.256,3.09-1.67,3.594-1.266c0.256,0.205-2.059,2.176-2.102,2.926
		c-0.053,0.883,0,6.371,0,6.371l-0.484,0.781h1.697l0.021-0.865"/>
	<path fill="#CAD4ED" stroke="#000000" stroke-width="0.5614" stroke-linecap="round" stroke-linejoin="round" d="M83.293,199.955
		v-2.102c0,0-1.48-0.559-1.48-2.578v-2.869c0.168-1.346,0.665-0.973,1.393-2.396c1.029-2.008,0.612-2.633-0.889-4.209l-1.277,1.057
		c0,0,1.038,1.252,0.224,1.785c-0.378,0.248-0.694-0.076-2.438-0.076v7.207L83.293,199.955z"/>
	<path fill="#CAD4ED" stroke="#000000" stroke-width="0.5614" stroke-linecap="round" stroke-linejoin="round" d="M121.387,199.955
		v-2.102c0,0,1.479-0.559,1.479-2.578v-2.869c-0.168-1.346-0.666-0.973-1.395-2.396c-1.025-2.008-0.607-2.633,0.893-4.209
		l1.275,1.057c0,0-1.037,1.252-0.225,1.785c0.379,0.248,0.697-0.076,2.439-0.076v7.207L121.387,199.955z"/>
	<path fill="#CAD4ED" stroke="#000000" stroke-width="0.7482" stroke-linecap="round" stroke-linejoin="round" d="M91.666,185.75
		c2.65-2.857,6.473-4.666,10.678-4.666c4.264,0,8.021,1.734,10.678,4.666h36.941c0.947,0,1.715-0.771,1.715-1.717l0.025-9.127
		c0-1.775-1.439-3.215-3.213-3.215H33.495c-1.774,0-3.211,1.439-3.211,3.215l0.025,9.127c0,0.945,0.767,1.717,1.715,1.717H91.666z"
		/>
	<path fill="#CAD4ED" stroke="#000000" stroke-width="0.7482" stroke-linecap="round" stroke-linejoin="round" d="M102.344,40.423
		c-4.914,0-9.268,2.439-11.895,6.174v0.055h-7.104c0-0.756-0.333-4.08-1.218-4.08c-1.051,0-1.492,0.715-1.492,0.715h-3.129
		l-0.005-6.674c0-1.037,0.767-1.883,1.733-2.119c7.29-1.793,15.151-2.938,23.109-2.938c4.393,0,8.758,0.328,13.014,0.924
		c0.273,0.037,4.783,0.785,5.078,0.842c1.701,0.328,3.371,0.697,5.018,1.102c0.967,0.24,1.732,1.086,1.801,2.119v6.744h-3.199
		c0,0-0.443-0.715-1.494-0.715c-0.883,0-1.217,3.324-1.217,4.08h-7.105v-0.055C111.611,42.863,107.256,40.423,102.344,40.423z"/>
	<path fill="#CAD4ED" stroke="#000000" stroke-width="0.7482" stroke-linecap="round" stroke-linejoin="round" d="M102.344,209.848
		c-4.914,0-9.268-2.439-11.895-6.174v-0.057h-7.104c0,0.758-0.333,4.082-1.218,4.082c-1.051,0-1.492-0.717-1.492-0.717h-3.129
		l-0.005,6.676c0,1.035,0.767,1.883,1.733,2.117c7.29,1.793,15.151,2.939,23.109,2.939c7.912,0,15.705-1.008,23.109-2.867
		c0.965-0.246,1.732-1.088,1.801-2.121v-6.744h-3.199c0,0-0.443,0.717-1.494,0.717c-0.883,0-1.217-3.324-1.217-4.082h-7.105v0.057
		C111.611,207.408,107.256,209.848,102.344,209.848z"/>
	<polygon fill="#FFFFFF" stroke="#000000" stroke-width="0.5614" stroke-linecap="round" stroke-linejoin="round" points="
		119.547,46.642 119.547,33.187 116.188,32.599 116.188,46.642 	"/>
	
		<line fill="none" stroke="#000000" stroke-width="0.4678" stroke-linecap="round" stroke-linejoin="round" stroke-miterlimit="1" stroke-dasharray="7.0158,1.871,0.9354,1.871" x1="117.865" y1="30.755" x2="117.865" y2="48.322"/>
	
		<line fill="none" stroke="#000000" stroke-width="0.4678" stroke-linecap="round" stroke-linejoin="round" stroke-miterlimit="1" stroke-dasharray="40.8186,1.871,0.9354,1.871" x1="26.744" y1="125.822" x2="155.793" y2="125.822"/>
</g>
<line fill="none" stroke="#000000" stroke-width="0.4678" stroke-linecap="round" stroke-linejoin="round" stroke-miterlimit="1" stroke-dasharray="7.0158,1.871,0.9354,1.871" x1="87.082" y1="30.755" x2="87.082" y2="48.322"/>
<line fill="none" stroke="#000000" stroke-width="0.4678" stroke-linecap="round" stroke-linejoin="round" stroke-miterlimit="1" stroke-dasharray="8.4188,1.871,0.9354,1.871" x1="48.946" y1="190.646" x2="48.946" y2="169.389"/>
<g>
	
		<line fill="none" stroke="#000000" stroke-width="0.4678" stroke-linecap="round" stroke-linejoin="round" stroke-miterlimit="1" stroke-dasharray="10.2047,1.871,0.9354,1.871,28.3464" x1="49.138" y1="80.773" x2="49.138" y2="46.41"/>
	<g>
		<g>
			<g>
				
					<line fill="none" stroke="#000000" stroke-width="0.4678" stroke-linecap="round" stroke-linejoin="round" stroke-miterlimit="1" x1="77.576" y1="33.14" x2="77.576" y2="5.291"/>
				
					<line fill="none" stroke="#000000" stroke-width="0.4678" stroke-linecap="round" stroke-linejoin="round" stroke-miterlimit="1" x1="127.018" y1="5.291" x2="127.018" y2="33.14"/>
				<g>
					<path d="M190.496,129.67v-8.59h2.959c0.668,0,1.178,0.041,1.529,0.123c0.492,0.113,0.912,0.318,1.26,0.615
						c0.453,0.383,0.792,0.872,1.017,1.468s0.337,1.276,0.337,2.042c0,0.652-0.076,1.23-0.229,1.734s-0.348,0.921-0.586,1.251
						s-0.499,0.59-0.782,0.779s-0.625,0.333-1.025,0.431s-0.86,0.146-1.38,0.146H190.496z M191.633,128.656h1.834
						c0.566,0,1.011-0.053,1.333-0.158s0.579-0.254,0.771-0.445c0.27-0.27,0.479-0.632,0.63-1.087s0.226-1.007,0.226-1.655
						c0-0.898-0.147-1.589-0.442-2.071s-0.653-0.806-1.075-0.97c-0.305-0.117-0.795-0.176-1.471-0.176h-1.805V128.656z"/>
				</g>
				<g>
					<path d="M104.531,9.63l1.137,0.287c-0.238,0.934-0.667,1.646-1.286,2.136s-1.376,0.735-2.271,0.735
						c-0.926,0-1.679-0.188-2.259-0.565s-1.021-0.923-1.324-1.638s-0.454-1.482-0.454-2.303c0-0.895,0.171-1.675,0.513-2.341
						s0.828-1.172,1.459-1.518s1.325-0.519,2.083-0.519c0.859,0,1.582,0.219,2.168,0.656s0.994,1.053,1.225,1.846l-1.119,0.264
						c-0.199-0.625-0.488-1.08-0.867-1.365s-0.855-0.428-1.43-0.428c-0.66,0-1.212,0.158-1.655,0.475s-0.755,0.741-0.935,1.274
						s-0.27,1.083-0.27,1.649c0,0.73,0.106,1.368,0.319,1.913s0.544,0.952,0.993,1.222s0.936,0.404,1.459,0.404
						c0.637,0,1.176-0.184,1.617-0.551S104.375,10.353,104.531,9.63z"/>
				</g>
				<g>
					<path d="M8.212,129.672v-0.785c-0.395,0.617-0.975,0.926-1.74,0.926c-0.496,0-0.952-0.137-1.368-0.41s-0.738-0.655-0.967-1.146
						s-0.343-1.054-0.343-1.69c0-0.621,0.104-1.185,0.311-1.69s0.518-0.894,0.932-1.163s0.877-0.404,1.389-0.404
						c0.375,0,0.709,0.079,1.002,0.237s0.531,0.364,0.715,0.618v-3.082H9.19v8.59H8.212z M4.878,126.566
						c0,0.797,0.168,1.393,0.504,1.787s0.732,0.592,1.189,0.592c0.461,0,0.853-0.188,1.175-0.565s0.483-0.952,0.483-1.726
						c0-0.852-0.164-1.477-0.492-1.875s-0.732-0.598-1.213-0.598c-0.469,0-0.86,0.191-1.175,0.574S4.878,125.742,4.878,126.566z"/>
				</g>
				
					<line fill="none" stroke="#000000" stroke-width="0.4678" stroke-linecap="round" stroke-linejoin="round" stroke-miterlimit="1" x1="177.48" y1="64.802" x2="153.102" y2="64.802"/>
				<g>
					<path d="M173.641,129.672v-0.785c-0.395,0.617-0.975,0.926-1.74,0.926c-0.496,0-0.952-0.137-1.368-0.41
						s-0.738-0.655-0.967-1.146s-0.343-1.054-0.343-1.69c0-0.621,0.104-1.185,0.311-1.69s0.518-0.894,0.932-1.163
						s0.877-0.404,1.389-0.404c0.375,0,0.709,0.079,1.002,0.237s0.531,0.364,0.715,0.618v-3.082h1.049v8.59H173.641z
						 M170.307,126.566c0,0.797,0.168,1.393,0.504,1.787s0.732,0.592,1.189,0.592c0.461,0,0.853-0.188,1.175-0.565
						s0.483-0.952,0.483-1.726c0-0.852-0.164-1.477-0.492-1.875s-0.732-0.598-1.213-0.598c-0.469,0-0.86,0.191-1.175,0.574
						S170.307,125.742,170.307,126.566z"/>
					<path d="M178.84,132.146h-0.791v-5.041c-0.191,0.183-0.44,0.364-0.75,0.545c-0.309,0.183-0.586,0.318-0.832,0.409v-0.765
						c0.441-0.208,0.828-0.46,1.16-0.756c0.33-0.296,0.564-0.583,0.703-0.861h0.51V132.146z"/>
				</g>
				<g>
					<path d="M154.65,74.955v-6.223h0.949v0.943c0.242-0.441,0.466-0.732,0.671-0.873s0.431-0.211,0.677-0.211
						c0.355,0,0.717,0.113,1.084,0.34l-0.363,0.979c-0.258-0.152-0.516-0.229-0.773-0.229c-0.23,0-0.438,0.069-0.621,0.208
						s-0.314,0.331-0.393,0.577c-0.117,0.375-0.176,0.785-0.176,1.23v3.258H154.65z"/>
					<path d="M161.221,77.43h-0.791v-5.041c-0.191,0.182-0.44,0.363-0.75,0.545c-0.309,0.182-0.586,0.318-0.832,0.409v-0.765
						c0.441-0.208,0.828-0.46,1.16-0.756c0.33-0.296,0.564-0.583,0.703-0.861h0.51V77.43z"/>
				</g>
				<g>
					<path d="M140.475,88.097v-6.223h0.949v0.943c0.242-0.441,0.466-0.732,0.671-0.873s0.431-0.211,0.677-0.211
						c0.355,0,0.717,0.113,1.084,0.34l-0.363,0.979c-0.258-0.152-0.516-0.229-0.773-0.229c-0.23,0-0.438,0.069-0.621,0.208
						s-0.314,0.331-0.393,0.577c-0.117,0.375-0.176,0.785-0.176,1.23v3.258H140.475z"/>
					<path d="M148.223,89.812v0.76h-4.259c-0.006-0.19,0.024-0.374,0.093-0.549c0.107-0.29,0.281-0.576,0.521-0.857
						c0.238-0.281,0.583-0.606,1.034-0.976c0.7-0.574,1.174-1.029,1.42-1.364s0.369-0.653,0.369-0.952
						c0-0.313-0.112-0.578-0.336-0.793c-0.225-0.215-0.517-0.323-0.877-0.323c-0.381,0-0.686,0.114-0.914,0.343
						s-0.345,0.545-0.348,0.949l-0.812-0.083c0.056-0.606,0.265-1.068,0.629-1.387c0.362-0.317,0.851-0.477,1.463-0.477
						c0.618,0,1.107,0.171,1.468,0.514s0.54,0.768,0.54,1.274c0,0.258-0.053,0.511-0.158,0.76s-0.28,0.511-0.524,0.787
						c-0.245,0.275-0.651,0.653-1.22,1.134c-0.475,0.398-0.779,0.669-0.914,0.811s-0.246,0.285-0.334,0.428H148.223z"/>
				</g>
			</g>
			<g>
				<path d="M90.765,106.255v-8.59h3.223c0.656,0,1.183,0.087,1.579,0.261s0.707,0.441,0.932,0.803s0.337,0.739,0.337,1.134
					c0,0.367-0.1,0.713-0.299,1.037s-0.5,0.586-0.902,0.785c0.52,0.152,0.919,0.412,1.198,0.779s0.419,0.801,0.419,1.301
					c0,0.402-0.085,0.776-0.255,1.122s-0.38,0.612-0.63,0.8s-0.563,0.329-0.94,0.425s-0.839,0.144-1.386,0.144H90.765z
					 M91.901,101.275h1.857c0.504,0,0.865-0.033,1.084-0.1c0.289-0.086,0.507-0.229,0.653-0.428s0.22-0.449,0.22-0.75
					c0-0.285-0.068-0.536-0.205-0.753s-0.332-0.365-0.586-0.445s-0.689-0.12-1.307-0.12h-1.717V101.275z M91.901,105.242h2.139
					c0.367,0,0.625-0.014,0.773-0.041c0.262-0.047,0.48-0.125,0.656-0.234s0.32-0.269,0.434-0.478s0.17-0.45,0.17-0.724
					c0-0.32-0.082-0.599-0.246-0.835s-0.392-0.402-0.683-0.498s-0.71-0.144-1.257-0.144h-1.986V105.242z"/>
			</g>
			<g>
				<path d="M62.128,150.721l1.043-0.164c0.059,0.418,0.222,0.738,0.489,0.961s0.642,0.334,1.122,0.334
					c0.484,0,0.844-0.099,1.078-0.296s0.352-0.429,0.352-0.694c0-0.238-0.104-0.426-0.311-0.562
					c-0.145-0.094-0.504-0.213-1.078-0.357c-0.773-0.195-1.31-0.364-1.608-0.507s-0.525-0.34-0.68-0.592s-0.231-0.53-0.231-0.835
					c0-0.277,0.063-0.534,0.19-0.771s0.3-0.433,0.519-0.589c0.164-0.121,0.388-0.224,0.671-0.308s0.587-0.126,0.911-0.126
					c0.488,0,0.917,0.07,1.286,0.211s0.642,0.331,0.817,0.571s0.297,0.562,0.363,0.964l-1.031,0.141
					c-0.047-0.32-0.183-0.57-0.407-0.75s-0.542-0.27-0.952-0.27c-0.484,0-0.83,0.08-1.037,0.24s-0.311,0.348-0.311,0.562
					c0,0.137,0.043,0.26,0.129,0.369c0.086,0.113,0.221,0.207,0.404,0.281c0.105,0.039,0.416,0.129,0.932,0.27
					c0.746,0.199,1.267,0.362,1.562,0.489s0.526,0.312,0.694,0.554s0.252,0.543,0.252,0.902c0,0.352-0.103,0.683-0.308,0.993
					s-0.501,0.551-0.888,0.721s-0.824,0.255-1.312,0.255c-0.809,0-1.425-0.168-1.849-0.504S62.245,151.381,62.128,150.721z"/>
				<path d="M71.112,155.053h-0.791v-5.041c-0.19,0.183-0.44,0.364-0.75,0.545c-0.309,0.183-0.586,0.318-0.833,0.409v-0.765
					c0.442-0.208,0.829-0.46,1.16-0.756s0.565-0.583,0.703-0.861h0.51V155.053z"/>
			</g>
			
				<line fill="none" stroke="#000000" stroke-width="0.4678" stroke-linecap="round" stroke-linejoin="round" stroke-dasharray="14.1732,1.871,0.9354,1.871,113.3858" x1="102.186" y1="212.533" x2="102.186" y2="146.818"/>
		</g>
	</g>
	
		<line fill="none" stroke="#000000" stroke-width="0.4678" stroke-linecap="round" stroke-linejoin="round" stroke-miterlimit="1" x1="113.969" y1="218.654" x2="197.068" y2="218.654"/>
	
		<line fill="none" stroke="#000000" stroke-width="0.4678" stroke-linecap="round" stroke-linejoin="round" stroke-miterlimit="1" x1="197.178" y1="31.128" x2="110.16" y2="31.128"/>
	
		<line fill="none" stroke="#000000" stroke-width="0.4678" stroke-linecap="round" stroke-linejoin="round" x1="193.725" y1="117.123" x2="193.725" y2="35.839"/>
	<polygon points="194.949,39.638 193.715,31.22 192.455,39.64 	"/>
	
		<line fill="none" stroke="#000000" stroke-width="0.4678" stroke-linecap="round" stroke-linejoin="round" x1="193.682" y1="132.932" x2="193.682" y2="214.02"/>
	<polygon points="192.457,210.221 193.691,218.639 194.951,210.221 	"/>
	
		<line fill="none" stroke="#000000" stroke-width="0.4678" stroke-linecap="round" stroke-linejoin="round" stroke-miterlimit="1" x1="178.248" y1="185.326" x2="153.102" y2="185.326"/>
	
		<line fill="none" stroke="#000000" stroke-width="0.4678" stroke-linecap="round" stroke-linejoin="round" x1="174.963" y1="133.35" x2="174.963" y2="180.615"/>
	<polygon points="173.738,176.818 174.973,185.236 176.23,176.818 	"/>
	
		<line fill="none" stroke="#000000" stroke-width="0.4678" stroke-linecap="round" stroke-linejoin="round" x1="175.006" y1="117.539" x2="175.006" y2="69.435"/>
	<polygon points="176.229,73.234 174.996,64.816 173.738,73.236 	"/>
	
		<line fill="none" stroke="#000000" stroke-width="0.4678" stroke-linecap="round" stroke-linejoin="round" stroke-miterlimit="1" x1="4.331" y1="78.468" x2="29.006" y2="78.47"/>
	
		<line fill="none" stroke="#000000" stroke-width="0.4678" stroke-linecap="round" stroke-linejoin="round" stroke-miterlimit="1" x1="4.331" y1="171.326" x2="29.006" y2="171.326"/>
	
		<line fill="none" stroke="#000000" stroke-width="0.4678" stroke-linecap="round" stroke-linejoin="round" x1="7.074" y1="133.35" x2="7.074" y2="166.615"/>
	<polygon points="5.852,162.818 7.084,171.236 8.342,162.818 	"/>
	
		<line fill="none" stroke="#000000" stroke-width="0.4678" stroke-linecap="round" stroke-linejoin="round" x1="7.117" y1="117.539" x2="7.117" y2="83.101"/>
	<polygon points="8.34,86.9 7.107,78.482 5.85,86.902 	"/>
	
		<line fill="none" stroke="#000000" stroke-width="0.4678" stroke-linecap="round" stroke-linejoin="round" x1="99.119" y1="101.21" x2="146.988" y2="101.21"/>
	<polygon points="143.188,102.435 151.605,101.201 143.188,99.943 	"/>
	
		<line fill="none" stroke="#000000" stroke-width="0.4678" stroke-linecap="round" stroke-linejoin="round" x1="88.022" y1="101.167" x2="35.397" y2="101.167"/>
	<polygon points="39.196,99.943 30.778,101.177 39.197,102.437 	"/>
	
		<line fill="none" stroke="#000000" stroke-width="0.4678" stroke-linecap="round" stroke-linejoin="round" x1="60.555" y1="149.697" x2="35.438" y2="149.697"/>
	<polygon points="39.237,148.473 30.819,149.707 39.238,150.965 	"/>
	
		<line fill="none" stroke="#000000" stroke-width="0.4678" stroke-linecap="round" stroke-linejoin="round" x1="73.555" y1="149.74" x2="97.377" y2="149.74"/>
	<polygon points="93.574,150.963 101.996,149.73 93.574,148.473 	"/>
	
		<line fill="none" stroke="#000000" stroke-width="0.4678" stroke-linecap="round" stroke-linejoin="round" x1="95.412" y1="8.195" x2="82.36" y2="8.195"/>
	<polygon points="86.163,6.97 77.739,8.205 86.165,9.464 	"/>
	
		<line fill="none" stroke="#000000" stroke-width="0.4678" stroke-linecap="round" stroke-linejoin="round" x1="109.154" y1="8.238" x2="122.184" y2="8.238"/>
	<polygon points="118.387,9.462 126.805,8.228 118.387,6.97 	"/>
	<g>
		<path d="M47.25,38.523v-1.008l3.639-0.006v3.188c-0.559,0.445-1.135,0.78-1.729,1.005s-1.203,0.337-1.828,0.337
			c-0.844,0-1.61-0.181-2.3-0.542s-1.21-0.884-1.562-1.567s-0.527-1.447-0.527-2.291c0-0.836,0.175-1.616,0.524-2.341
			s0.853-1.263,1.509-1.614s1.412-0.527,2.268-0.527c0.621,0,1.183,0.101,1.685,0.302s0.896,0.481,1.181,0.841
			s0.502,0.828,0.65,1.406l-1.025,0.281c-0.129-0.438-0.289-0.781-0.48-1.031s-0.465-0.45-0.82-0.601s-0.75-0.226-1.184-0.226
			c-0.52,0-0.969,0.079-1.348,0.237s-0.685,0.366-0.917,0.624s-0.413,0.541-0.542,0.85c-0.219,0.531-0.328,1.107-0.328,1.729
			c0,0.766,0.132,1.406,0.396,1.922s0.647,0.898,1.151,1.148s1.039,0.375,1.605,0.375c0.492,0,0.973-0.095,1.441-0.284
			s0.824-0.392,1.066-0.606v-1.6H47.25z"/>
		<path d="M56.169,43.612v0.76h-4.258c-0.006-0.19,0.025-0.374,0.092-0.549c0.108-0.29,0.282-0.576,0.521-0.857
			c0.238-0.281,0.583-0.606,1.035-0.976c0.7-0.574,1.173-1.029,1.419-1.364s0.369-0.653,0.369-0.952
			c0-0.313-0.112-0.578-0.336-0.793c-0.225-0.215-0.517-0.323-0.877-0.323c-0.381,0-0.686,0.114-0.914,0.343
			s-0.344,0.545-0.347,0.949l-0.813-0.083c0.056-0.606,0.265-1.068,0.628-1.387c0.363-0.317,0.851-0.477,1.463-0.477
			c0.618,0,1.107,0.171,1.468,0.514s0.541,0.768,0.541,1.274c0,0.258-0.053,0.511-0.158,0.76s-0.281,0.511-0.525,0.787
			c-0.245,0.275-0.651,0.653-1.22,1.134c-0.475,0.398-0.779,0.669-0.914,0.811s-0.246,0.285-0.334,0.428H56.169z"/>
	</g>
	<g>
		<path d="M34.557,11.892v-8.59h3.223c0.656,0,1.183,0.087,1.579,0.261s0.707,0.441,0.932,0.803s0.337,0.739,0.337,1.134
			c0,0.367-0.1,0.713-0.299,1.037s-0.5,0.586-0.902,0.785c0.52,0.152,0.919,0.412,1.198,0.779s0.419,0.801,0.419,1.301
			c0,0.402-0.085,0.776-0.255,1.122s-0.38,0.612-0.63,0.8s-0.563,0.329-0.94,0.425s-0.839,0.144-1.386,0.144H34.557z M35.693,6.912
			h1.857c0.504,0,0.865-0.033,1.084-0.1c0.289-0.086,0.507-0.229,0.653-0.428s0.22-0.449,0.22-0.75c0-0.285-0.068-0.536-0.205-0.753
			s-0.332-0.365-0.586-0.445s-0.689-0.12-1.307-0.12h-1.717V6.912z M35.693,10.878h2.139c0.367,0,0.625-0.014,0.773-0.041
			c0.262-0.047,0.48-0.125,0.656-0.234s0.32-0.269,0.434-0.478s0.17-0.45,0.17-0.724c0-0.32-0.082-0.599-0.246-0.835
			s-0.392-0.402-0.683-0.498s-0.71-0.144-1.257-0.144h-1.986V10.878z"/>
		<path d="M44.591,14.372V12.83h-2.795v-0.725l2.94-4.175h0.646v4.175h0.87v0.725h-0.87v1.542H44.591z M44.591,12.104V9.2
			l-2.017,2.905H44.591z"/>
	</g>
	<g>
		
			<line fill="none" stroke="#000000" stroke-width="0.4678" stroke-linecap="round" stroke-linejoin="round" stroke-miterlimit="1" x1="59.031" y1="62.558" x2="59.031" y2="34.708"/>
		
			<line fill="none" stroke="#000000" stroke-width="0.4678" stroke-linecap="round" stroke-linejoin="round" x1="73.305" y1="37.613" x2="63.814" y2="37.613"/>
		<polygon points="67.611,36.388 59.194,37.623 67.613,38.882 		"/>
	</g>
	<g>
		
			<line fill="none" stroke="#000000" stroke-width="0.4678" stroke-linecap="round" stroke-linejoin="round" stroke-miterlimit="1" x1="39.751" y1="34.708" x2="39.751" y2="62.558"/>
		
			<line fill="none" stroke="#000000" stroke-width="0.4678" stroke-linecap="round" stroke-linejoin="round" x1="25.055" y1="37.656" x2="34.917" y2="37.656"/>
		<polygon points="31.12,38.88 39.538,37.646 31.12,36.388 		"/>
	</g>
	
		<line fill="none" stroke="#000000" stroke-width="0.4678" stroke-linecap="round" stroke-linejoin="round" stroke-miterlimit="1" x1="49.095" y1="30.419" x2="49.095" y2="5.291"/>
	
		<line fill="none" stroke="#000000" stroke-width="0.4678" stroke-linecap="round" stroke-linejoin="round" stroke-miterlimit="1" x1="30.545" y1="63.687" x2="30.545" y2="5.291"/>
	<g>
		
			<line fill="none" stroke="#000000" stroke-width="0.4678" stroke-linecap="round" stroke-linejoin="round" x1="63.3" y1="8.173" x2="53.81" y2="8.173"/>
		<polygon points="57.606,6.949 49.189,8.183 57.608,9.441 		"/>
	</g>
	<g>
		
			<line fill="none" stroke="#000000" stroke-width="0.4678" stroke-linecap="round" stroke-linejoin="round" x1="16.438" y1="8.173" x2="25.929" y2="8.173"/>
		<polygon points="22.132,6.949 30.549,8.183 22.13,9.441 		"/>
	</g>
</g>
</svg>
